<?xml version="1.0" encoding="utf-8"?>
<svg version="1.1" xmlns:xlink="http://www.w3.org/1999/xlink" width="30px" height="30px" xmlns="http://www.w3.org/2000/svg">
  <g transform="matrix(1 0 0 1 -99 -127 )">
    <path d="M 114 128  C 121.84 128  128 134.16  128 142  C 128 149.84  121.84 156  114 156  C 106.16 156  100 149.84  100 142  C 100 134.16  106.16 128  114 128  Z " fill-rule="nonzero" fill="#0079fe" stroke="none" />
    <path d="M 114 128  C 121.84 128  128 134.16  128 142  C 128 149.84  121.84 156  114 156  C 106.16 156  100 149.84  100 142  C 100 134.16  106.16 128  114 128  Z " stroke-width="2" stroke="#0079fe" fill="none" />
  </g>
</svg>