<?xml version="1.0" encoding="utf-8"?>
<svg version="1.1" xmlns:xlink="http://www.w3.org/1999/xlink" width="30px" height="30px" xmlns="http://www.w3.org/2000/svg">
  <g transform="matrix(1 0 0 1 -368 -126 )">
    <path d="M 383 127  C 390.84 127  397 133.16  397 141  C 397 148.84  390.84 155  383 155  C 375.16 155  369 148.84  369 141  C 369 133.16  375.16 127  383 127  Z " fill-rule="nonzero" fill="#ffffff" stroke="none" />
    <path d="M 383 127  C 390.84 127  397 133.16  397 141  C 397 148.84  390.84 155  383 155  C 375.16 155  369 148.84  369 141  C 369 133.16  375.16 127  383 127  Z " stroke-width="2" stroke="#e4e4e4" fill="none" />
  </g>
</svg>