<?xml version="1.0" encoding="utf-8"?>
<svg version="1.1" xmlns:xlink="http://www.w3.org/1999/xlink" width="14px" height="16px" xmlns="http://www.w3.org/2000/svg">
  <g transform="matrix(1 0 0 1 -1403 -693 )">
    <path d="M 1.3611111171875003 13.753968247767856  L 1.3611111171874994 3.238095238095238  L 0.5833333333333333 3.238095238095238  C 0.2611672292653707 3.238095238095238  0 2.971598065375472  0 2.642857142857143  C 0 2.3141162203388137  0.2611672292653707 2.0476190476190474  0.5833333333333333 2.0476190476190474  C 0.5833333333333333 2.0476190476190474  0.5833333333333333 2.0476190476190474  0.5833333333333333 2  L 13.416666666666668 2  C 13.416666666666668 2.0476190476190474  13.416666666666668 2.0476190476190474  13.416666666666668 2.0476190476190474  C 13.738832770734628 2.0476190476190474  14 2.3141162203388137  14 2.642857142857143  C 14 2.971598065375472  13.738832770734628 3.238095238095238  13.416666666666668 3.238095238095238  L 2.5277777838541673 3.238095238095238  L 2.5277777838541673 13.753968247767856  C 2.5277777838541655 14.301869800475211  2.963056496575958 14.746031752232144  3.5 14.746031752232144  L 10.5 14.746031752232144  C 11.036943503424041 14.746031752232144  11.472222216145832 14.301869800475211  11.472222216145832 13.753968266369048  L 11.472222216145832 5.023809523809524  C 11.472222216145832 4.695068601291194  11.733389445411206 4.428571428571429  12.055555549479166 4.428571428571429  C 12.37772165354713 4.428571428571429  12.6388888828125 4.695068601291194  12.6388888828125 5.023809523809524  L 12.6388888828125 13.753968247767856  C 12.6388888828125 14.959325390625  11.68125 15.936507924107145  10.5 15.936507942708333  L 3.5 15.936507942708333  C 2.31875 15.936507942708333  1.3611111171875003 14.95932540922619  1.3611111171875003 13.753968247767856  Z M 8.555555549479166 1.2539682477678569  L 5.444444450520832 1.2539682477678569  C 5.1222783464528705 1.2539682477678569  4.861111117187499 0.9874710750480908  4.861111117187499 0.6587301525297616  C 4.861111117187499 0.3299892300114324  5.1222783464528705 0.06349205729166638  5.444444450520832 0.06349205729166638  L 8.555555549479166 0.06349205729166638  C 8.877721653547129 0.06349205729166638  9.138888882812498 0.3299892300114324  9.138888882812498 0.6587301525297616  C 9.138888882812498 0.9874710750480908  8.877721653547129 1.2539682477678569  8.555555549479166 1.2539682477678569  Z M 4.861111117187499 11.373015866815475  L 4.861111117187499 6.611111104910714  C 4.861111117187499 6.282370182392384  5.1222783464528705 6.015873009672619  5.444444450520832 6.015873009672619  C 5.766610554588795 6.015873009672619  6.027777783854166 6.282370182392384  6.027777783854166 6.611111104910714  L 6.027777783854166 11.373015866815475  C 6.027777783854166 11.701756789333807  5.766610554588795 11.968253962053572  5.444444450520832 11.968253962053572  C 5.1222783464528705 11.968253962053572  4.861111117187499 11.701756789333807  4.861111117187499 11.373015866815475  Z M 7.972222216145832 11.373015866815475  L 7.972222216145832 6.611111104910714  C 7.972222216145832 6.282370182392384  8.233389445411204 6.015873009672619  8.555555549479166 6.015873009672619  C 8.877721653547129 6.015873009672619  9.138888882812498 6.282370182392384  9.138888882812498 6.611111104910714  L 9.138888882812498 11.373015866815475  C 9.138888882812498 11.701756789333807  8.877721653547129 11.968253962053572  8.555555549479166 11.968253962053572  C 8.233389445411204 11.968253962053572  7.972222216145832 11.701756789333807  7.972222216145832 11.373015866815475  Z " fill-rule="nonzero" fill="#000000" stroke="none" transform="matrix(1 0 0 1 1403 693 )" />
  </g>
</svg>