<?xml version="1.0" encoding="utf-8"?>
<svg version="1.1" xmlns:xlink="http://www.w3.org/1999/xlink" width="22px" height="22px" xmlns="http://www.w3.org/2000/svg">
  <defs>
    <pattern id="BGPattern" patternUnits="userSpaceOnUse" alignment="0 0" imageRepeat="None" />
    <mask fill="white" id="Clip3">
      <path d="M 12.182340869674103 10.970580608359128  L 21.97983118680149 1.2715757648408328  L 20.712680040488785 0.016727056841844362  L 10.915189723361403 9.715731900360137  L 1.273970069603147 0.168116320910214  L 0.006818923290443219 1.422965028909201  L 9.64803860000626 10.970580608359125  L 0.09514581598472066 20.43072686049696  L 1.3622969622974215 21.685575568495942  L 10.915189723361403 12.225429316358113  L 20.62095597992257 21.836964809829645  L 21.88810710327771 20.58211610183066  L 12.182340869674103 10.970580608359128  Z " fill-rule="evenodd" />
    </mask>
  </defs>
  <g transform="matrix(1 0 0 1 -1199 -1023 )">
    <path d="M 12.182340869674103 10.970580608359128  L 21.97983118680149 1.2715757648408328  L 20.712680040488785 0.016727056841844362  L 10.915189723361403 9.715731900360137  L 1.273970069603147 0.168116320910214  L 0.006818923290443219 1.422965028909201  L 9.64803860000626 10.970580608359125  L 0.09514581598472066 20.43072686049696  L 1.3622969622974215 21.685575568495942  L 10.915189723361403 12.225429316358113  L 20.62095597992257 21.836964809829645  L 21.88810710327771 20.58211610183066  L 12.182340869674103 10.970580608359128  Z " fill-rule="nonzero" fill="rgba(33, 33, 33, 1)" stroke="none" transform="matrix(1 0 0 1 1199 1023 )" class="fill" />
    <path d="M 12.182340869674103 10.970580608359128  L 21.97983118680149 1.2715757648408328  L 20.712680040488785 0.016727056841844362  L 10.915189723361403 9.715731900360137  L 1.273970069603147 0.168116320910214  L 0.006818923290443219 1.422965028909201  L 9.64803860000626 10.970580608359125  L 0.09514581598472066 20.43072686049696  L 1.3622969622974215 21.685575568495942  L 10.915189723361403 12.225429316358113  L 20.62095597992257 21.836964809829645  L 21.88810710327771 20.58211610183066  L 12.182340869674103 10.970580608359128  Z " stroke-width="0" stroke-dasharray="0" stroke="rgba(255, 255, 255, 0)" fill="none" transform="matrix(1 0 0 1 1199 1023 )" class="stroke" mask="url(#Clip3)" />
  </g>
</svg>