<?xml version="1.0" encoding="utf-8"?>
<svg version="1.1" xmlns:xlink="http://www.w3.org/1999/xlink" width="33px" height="33px" xmlns="http://www.w3.org/2000/svg">
  <defs>
    <pattern id="BGPattern" patternUnits="userSpaceOnUse" alignment="0 0" imageRepeat="None" />
    <mask fill="white" id="Clip1">
      <path d="M 12.79551919321842 12  L 16.5 0  L 20.20448080678158 12  L 32.192432518870035 12  L 22.49397585604423 18.447560814373265  L 26.198456662825805 29.848780407186634  L 16.5 22.802439185626735  L 6.801543337174195 29.848780407186634  L 10.506024143955772 18.447560814373265  L 0.8075674811299649 12  L 12.79551919321842 12  Z " fill-rule="evenodd" />
    </mask>
  </defs>
  <g transform="matrix(1 0 0 1 -328 -855 )">
    <path d="M 12.79551919321842 12  L 16.5 0  L 20.20448080678158 12  L 32.192432518870035 12  L 22.49397585604423 18.447560814373265  L 26.198456662825805 29.848780407186634  L 16.5 22.802439185626735  L 6.801543337174195 29.848780407186634  L 10.506024143955772 18.447560814373265  L 0.8075674811299649 12  L 12.79551919321842 12  Z " fill-rule="nonzero" fill="rgba(255, 255, 0, 1)" stroke="none" transform="matrix(1 0 0 1 328 855 )" class="fill" />
    <path d="M 12.79551919321842 12  L 16.5 0  L 20.20448080678158 12  L 32.192432518870035 12  L 22.49397585604423 18.447560814373265  L 26.198456662825805 29.848780407186634  L 16.5 22.802439185626735  L 6.801543337174195 29.848780407186634  L 10.506024143955772 18.447560814373265  L 0.8075674811299649 12  L 12.79551919321842 12  Z " stroke-width="2" stroke-dasharray="0" stroke="rgba(121, 121, 121, 1)" fill="none" transform="matrix(1 0 0 1 328 855 )" class="stroke" mask="url(#Clip1)" />
  </g>
</svg>