<?xml version="1.0" encoding="utf-8"?>
<svg version="1.1" xmlns:xlink="http://www.w3.org/1999/xlink" width="22px" height="22px" xmlns="http://www.w3.org/2000/svg">
  <g transform="matrix(1 0 0 1 -12 -22 )">
    <path d="M 8.75217391304348 8.51304347826087  C 8.74021739130435 9.30217391304348  8.10652173913043 9.93586956521739  7.30543478260869 9.93586956521739  L 1.54239130434783 9.93586956521739  C 0.753260869565217 9.93586956521739  0.107608695652174 9.29021739130435  0.107608695652174 8.50108695652174  L 0.107608695652174 2.73804347826087  C 0.107608695652174 1.94891304347826  0.753260869565217 1.30326086956522  1.54239130434783 1.30326086956522  L 7.31739130434783 1.30326086956522  C 8.10652173913044 1.30326086956522  8.75217391304348 1.94891304347826  8.75217391304348 2.73804347826087  L 8.75217391304348 8.51304347826087  Z M 7.31739130434783 2.73804347826087  L 1.54239130434783 2.73804347826087  L 1.54239130434783 8.51304347826087  L 7.31739130434783 8.51304347826087  L 7.31739130434783 2.73804347826087  Z M 17.3967391304348 10.7130434782609  C 17.1217391304348 10.9880434782609  16.7630434782609 11.1315217391304  16.3804347826087 11.1315217391304  C 15.9978260869565 11.1315217391304  15.6391304347826 10.9880434782609  15.3641304347826 10.7130434782609  L 11.2869565217391 6.63586956521739  C 11.0119565217391 6.36086956521739  10.8684782608696 6.00217391304348  10.8684782608696 5.6195652173913  C 10.8684782608696 5.23695652173913  11.0119565217391 4.87826086956522  11.2869565217391 4.60326086956522  L 15.3641304347826 0.526086956521738  C 15.6391304347826 0.251086956521738  15.9978260869565 0.107608695652173  16.3804347826087 0.107608695652173  C 16.7630434782609 0.107608695652173  17.1217391304348 0.251086956521738  17.3967391304348 0.526086956521738  L 21.4739130434783 4.60326086956522  C 21.7489130434783 4.87826086956522  21.8923913043478 5.23695652173913  21.8923913043478 5.6195652173913  C 21.8923913043478 6.00217391304348  21.7489130434783 6.36086956521739  21.4739130434783 6.63586956521739  L 17.3967391304348 10.7130434782609  Z M 20.4576086956522 5.6195652173913  L 16.3804347826087 1.54239130434783  L 12.3032608695652 5.6195652173913  L 16.3804347826087 9.69673913043478  L 20.4576086956522 5.6195652173913  Z M 8.75217391304348 20.4576086956522  C 8.74021739130435 21.2586956521739  8.10652173913043 21.8923913043478  7.30543478260869 21.8923913043478  L 1.54239130434783 21.8923913043478  C 0.753260869565217 21.8923913043478  0.107608695652174 21.2467391304348  0.107608695652174 20.4576086956522  L 0.107608695652174 14.6826086956522  C 0.107608695652174 13.8934782608696  0.753260869565217 13.2478260869565  1.54239130434783 13.2478260869565  L 7.31739130434783 13.2478260869565  C 8.10652173913044 13.2478260869565  8.75217391304348 13.8934782608696  8.75217391304348 14.6826086956522  L 8.75217391304348 20.4576086956522  Z M 7.31739130434783 14.6945652173913  L 1.54239130434783 14.6945652173913  L 1.54239130434783 20.4695652173913  L 7.31739130434783 20.4695652173913  L 7.31739130434783 14.6945652173913  Z M 20.6967391304348 20.4576086956522  C 20.6967391304348 21.2586956521739  20.0630434782609 21.8923913043478  19.2619565217391 21.8923913043478  L 13.4869565217391 21.8923913043478  C 12.6978260869565 21.8923913043478  12.0521739130435 21.2467391304348  12.0521739130435 20.4576086956522  L 12.0521739130435 14.6826086956522  C 12.0521739130435 13.8934782608696  12.6978260869565 13.2478260869565  13.4869565217391 13.2478260869565  L 19.2619565217391 13.2478260869565  C 20.0510869565217 13.2478260869565  20.6967391304348 13.8934782608696  20.6967391304348 14.6826086956522  L 20.6967391304348 20.4576086956522  Z M 19.2739130434783 14.6945652173913  L 13.4989130434783 14.6945652173913  L 13.4989130434783 20.4695652173913  L 19.2739130434783 20.4695652173913  L 19.2739130434783 14.6945652173913  Z " fill-rule="nonzero" fill="#ffffff" stroke="none" transform="matrix(1 0 0 1 12 22 )" />
  </g>
</svg>