<?xml version="1.0" encoding="utf-8"?>
<svg version="1.1" xmlns:xlink="http://www.w3.org/1999/xlink" width="55px" height="55px" xmlns="http://www.w3.org/2000/svg">
  <g transform="matrix(1 0 0 1 -700 -746 )">
    <path d="M 42.8575977392578 0.301731826171879  C 43.8064245996094 0.0516201318359375  44.7976536132813 0.0473184228515625  45.7716759521484 0  L 46.8956424707031 0  C 47.8291061767578 0.031955322265625  48.7644134033203 0.063296083984375  49.6905028125 0.192960893554688  C 50.0825698291016 0.257486044921875  50.4949162158203 0.29865923828125  50.8501117480469 0.491620131835937  C 51.333128515625 0.8246927734375  51.5396089355469 1.41402239257812  51.6772625488281 1.95910612304687  C 51.92 3.00871505859375  51.9396648095703 4.092122890625  51.9826815771484 5.16385477050781  C 52.0312290673828 6.86670391601562  52.1529050195312 8.56648047363281  52.2413966357422 10.2674860449219  C 52.9149161621094 22.2753072802734  53.6369832324219 34.2800558740234  54.5022346386719 46.2755865966797  C 54.5741340869141 47.5083240478516  54.7228491455078 48.7336871484375  54.8426815771484 49.962122890625  C 54.9268715380859 50.9435195263672  55.0036871484375 51.9353631005859  54.882625703125 52.917374296875  C 54.8070391064453 53.4618435742187  54.6675419189453 54.0272066748047  54.3074301708984 54.4579888037109  C 54.068379868164 54.7486591845703  53.7187151123047 54.9305586328125  53.3518435742187 55  L 1.68256982910156 55  C 0.943296083984375 54.692122890625  0.342290512695313 54.0892737451172  0 53.3524580810547  L 0 27.0796648095703  C 0.271005571289062 26.5278212353516  0.688268173828125 26.0767597900391  1.13502791015625 25.6840782128906  C 1.95111731933594 24.977374296875  2.89134076171875 24.4378212353516  3.79899442871094 23.8613966357422  C 6.30502796386719 22.2329050195312  8.77541902832031 20.5491061230469  11.3115642578125 18.9673184228516  C 12.041005625 18.4640223388672  12.7218994482422 17.8826815771484  13.5103351904297 17.4691061230469  C 13.9779888037109 17.2269832324219  14.4917318261719 17.0395530615234  15.0251396582031 17.0475419189453  C 15.5874301708984 17.0579888574219  16.17 17.277374296875  16.5227374511719 17.7315083837891  C 16.9615083837891 18.2974860449219  17.0721229443359 19.0349162158203  17.1225139550781 19.7293296191406  C 17.2245251513672 21.6294413671875  16.8963687255859 23.5295530615234  17.072122890625 25.4278212353516  C 17.658994375 25.5003351904297  18.2581564257812 25.3958659130859  18.79525140625 25.1543575292969  C 19.7766480419922 24.7248044677734  20.5318994482422 23.9412848876953  21.4223463867188 23.3679329833984  C 23.0305586865234 22.2912849414063  24.6258659130859 21.1955865966797  26.2328491455078 20.1170949804688  C 27.1226815234375 19.5105586865234  28.0407821289063 18.9451955322266  28.9103351904297 18.3091619970703  C 29.6692737451172 17.7843575292969  30.4534078320312 17.2460334814453  31.3586033642578 17.013128515625  C 31.9970949804688 16.8422905126953  32.7474301708984 16.9584357958984  33.2212290673828 17.4463687255859  C 33.6937988964844 17.937374296875  33.8449720898438 18.6360894091797  33.9217877001953 19.2911731933594  C 34.1178212353516 21.2969832324219  33.7017877001953 23.3083240478516  33.8922905126953 25.3141340869141  C 35.2841899609375 25.31474859375  36.6767039160156 25.3135195800781  38.0686033642578 25.31474859375  C 38.1214525097656 27.7937430224609  38.0993296191406 30.2733519580078  38.0833519580078 32.7529608935547  C 38.3199441259766 32.7548044677734  38.5565362939453 32.7548044677734  38.7937430224609 32.7529608935547  C 39.4617318261719 24.9232960839844  40.1887151123047 17.0985474902344  40.8511731933594 9.26888268066407  C 40.9660894091797 7.44497208984375  41.0017318261719 5.61245808105469  41.2543016552734 3.80022344238282  C 41.3864245458984 2.93374296875  41.5339105908203 2.05374296875  41.9050837841797 1.25301676757813  C 42.1005027587891 0.843743022460942  42.3924022070313 0.420335190429692  42.8575977392578 0.301731826171879  Z M 48.6439664648437 2.54843574218749  C 47.1064245458984 2.4322905126953  45.5553631005859 2.41139663574217  44.0202793164062 2.57424583496094  C 43.8101116943359 3.233631328125  43.7130167675781 3.92251400878906  43.6282122998047 4.60709498046875  C 43.4358659130859 6.26078212890625  43.4051396582031 7.92675979003906  43.2939105908203 9.58597766113281  C 42.5644692236328 18.1266480419922  41.7686591845703 26.6611731933594  41.0564245996094 35.2030726416016  C 39.2417318798828 35.2245810253906  37.4264245996094 35.2061452832031  35.6111173193359 35.2122905126953  C 35.6184916162109 32.7308380029297  35.6596648095703 30.2487709863281  35.6350837841797 27.7685474902344  C 34.3206145068359 27.7771508544922  33.0055307226562 27.7710055712891  31.6910614453125 27.7716201318359  C 31.5693854931641 26.5044692773437  31.3481564257812 25.241005625  31.3837988964844 23.9634078320312  C 31.3905586865234 22.5039106445312  31.5951955322266 21.0444134033203  31.4815083837891 19.5849162158203  C 30.7612849414062 19.9739106445312  30.1166480419922 20.4827374511719  29.4406703808594 20.9411731933594  C 27.1810614453125 22.4166480419922  24.9644692773437 23.9566480419922  22.7208380029297 25.4560894091797  C 22.2445810253906 25.7719553222656  21.8150279638672 26.1498883056641  21.3492178710937 26.4792737451172  C 20.4249720361328 27.1613966357422  19.3643016552734 27.7027932714844  18.2151396582031 27.8558100390625  C 17.6872625488281 27.9301675683594  17.1495530615234 27.9209496972656  16.6216759521484 27.8472067285156  C 16.0200558203125 27.7716201318359  15.4178211816406 27.697877109375  14.8162011035156 27.6210614453125  C 14.7246368457031 26.5659217871094  14.5765362939453 25.5138547167969  14.5630167675781 24.4537988964844  C 14.5298324316406 22.8492737451172  14.762122890625 21.2465921679687  14.652122890625 19.6426815771484  C 13.9386591845703 20.0396648095703  13.3216759521484 20.5816760058594  12.6450837841797 21.0339664648437  C 10.0425698291015 22.6532402099609  7.51625697753905 24.3892737451172  4.93893855468749 26.0472625488281  C 4.10011174804686 26.5886591845703  3.20720672851561 27.0729050195312  3 27.7808380029297  L 3 52.5412849414062  C 19.1461452294922 52.5418994482422  35.7997765039062 52.5418994482422  52.4534078320312 52.5412849414062  C 52.5455865966797 51.51625703125  52.4202234960937 50.4887709863281  52.323128515625 49.4686592382812  C 52.1781006054687 48.2027374511719  52.0785474902344 46.9318994482422  51.993128515625 45.6604469384766  C 51.0596648095703 32.6214525097656  50.2933519580078 19.5707821289062  49.5718994482422 6.51826817382811  C 49.5055307226562 5.22469277343749  49.5405586865234 3.91698323242186  49.3131843359375 2.63815642578124  C 49.1054748486328 2.56564247070311  48.8645809716797 2.5828491455078  48.6439664648437 2.54843574218749  Z " fill-rule="nonzero" fill="#02a7f0" stroke="none" transform="matrix(1 0 0 1 700 746 )" />
  </g>
</svg>