<?xml version="1.0" encoding="utf-8"?>
<svg version="1.1" xmlns:xlink="http://www.w3.org/1999/xlink" width="28px" height="25px" xmlns="http://www.w3.org/2000/svg">
  <g transform="matrix(1 0 0 1 -718 -774 )">
    <path d="M 0.0499178251378666 1.91388941271551  C 0.159875086167278 1.08456947063577  0.501248736213234 0.418994393184258  0.901971754365809 0.23791175579202  C 1.55435426240809 -0.114621497844835  2.26746631433823 0.980543254983834  2.29829116498162 2.38971292429956  C 2.31071310891544 4.05894817483836  2.30059153837316 5.73010977909482  2.3038120289522 7.40030820649245  C 2.31255338350184 8.24407630657327  2.08895827205882 9.07146981074892  1.74160369944853 9.49624351764547  C 1.37952680951287 9.95858221646012  0.894150517003675 9.94413405845905  0.538514608226102 9.46156814049029  C 0.205882352941175 9.02812567349138  -0.00345053998161989 8.22095938846983  0.00345053998161697 7.40127146753771  C 0.00345053998161697 5.95646316002155  0.00391059857536605 4.51165485250538  0.00345053998161697 3.06780963766163  C 0.00253038258271984 2.68156418372844  -0.00529081456801517 2.28664996969289  0.0499178251378666 1.91388941271551  Z M 8.8483404698989 1.83683299097522  C 8.96795928308823 1.04411486395475  9.29967138097427 0.417068039466596  9.68705225758272 0.238875016837286  C 10.339434765625 -0.116547851562498  11.0539270335478 0.977653640220905  11.0856720415901 2.38682330953664  C 11.0980939855239 4.05702173693427  11.0879724149816 5.72914660223599  11.0907328469669 7.39934502963363  C 11.098554084329 8.19495277141703  10.9021031939338 8.9780389614763  10.5869536477482 9.41918709590517  C 10.2570818244485 9.89693704539332  9.80621097196691 9.96821423760777  9.44597435661765 9.60026973329742  C 9.06319418658088 9.22654599946121  8.79865265395221 8.38277789938039  8.79221163258272 7.4975920157597  C 8.78899114200368 5.99017536031789  8.79221163258272 4.48372188173492  8.79037135799632 2.97726831896552  C 8.78807098460478 2.59391247979526  8.78761092601103 2.20285105738147  8.8483404698989 1.83683299097522  Z M 22.2069996897978 10.6308996161099  C 22.3882681640625 10.192641096444  22.6482090303309 9.90464262863685  22.9224120749081 9.83240225956357  C 24.2078540670956 9.78135237068965  25.494216216682 9.82469659213362  26.7801183076746 9.80928534146013  C 27.1403549230239 9.78327880859376  27.5019717543658 10.1232903421336  27.7251068072151 10.7185513200431  C 27.9896483800551 11.3947215955011  28.0489977079504 12.3829705179149  27.8801511776195 13.1814679586476  C 27.7048636259191 14.0396841325431  27.2746960535386 14.6349451104526  26.8279658088235 14.6253130051185  C 25.5705882352941 14.6262761819774  24.3127505629596 14.6291657967403  23.0553729894301 14.6233866514009  C 22.6426881261489 14.622423474542  22.2447256204044 14.1099980637123  22.0547157513787 13.344249646417  C 21.8315806985294 12.4889230872845  21.8946105755974 11.35426698882  22.2069996897978 10.6308996161099  Z M 0.00529081456801517 17.5197456728179  C 0.0149523265165444 16.4582931202856  0.403253360523897 15.4854555327317  0.898291164981618 15.2658447265625  C 1.55021361443015 14.908495504445  2.26470588235294 15.9988441204203  2.29829116498162 17.4080138739224  C 2.31025305032169 19.1119245016164  2.30243181295956 20.8158351293104  2.30243181295956 22.5197456728179  C 2.30289187155331 23.7834713429418  1.75586591796875 24.8930841695851  1.15363128446691 24.8612984071929  C 0.551856709558825 24.8921209927263  0.0066710305606643 23.7853977808459  0.0048307559742661 22.5255249865302  C 0.00299048138786935 20.8572529970366  0.00207032398897223 19.1880177464979  0.00529081456801517 17.5197456728179  Z M 8.79037135799632 17.7085339776401  C 8.76230693933824 16.5825467234644  9.15750905330883 15.4970140759698  9.68521194278493 15.2658447265625  C 10.3375944508272 14.9075322433998  11.0534669347426 16.0007705583244  11.0856720415901 17.4118666655442  C 11.0980939855239 19.0820650929418  11.0879724149816 20.7522635203394  11.0911929055607 22.4224619477371  C 11.0976339269302 23.1525717268319  10.9347683191636 23.8749759226832  10.6619454503676 24.3286456930226  C 10.3380545496324 24.8873049400593  9.86372002527573 25.0192640422953  9.48093985523897 24.6599884664601  C 9.08067697610294 24.3026392443427  8.79865265395221 23.4376806640625  8.79221163258272 22.5255249865302  C 8.78853104319853 20.9198613449623  8.79221163258272 19.3141977033944  8.79037135799632 17.7085339776401  Z M 20.6717384018842 21.6817568864493  C 20.7908971162684 20.8890387594289  21.1226092543658 20.2600654970366  21.5099901309743 20.0809092975485  C 21.6687150907629 20.0057792295259  21.8329608743107 20.0202273875269  21.9949063246783 20.0202273033405  C 23.6056194335937 20.0221537412446  25.2163325425092 20.0183008654364  26.827045691636 20.0211904801994  C 27.1928031709559 20.0173376885776  27.5521196289063 20.4074359341325  27.7628327378217 21.0335195817619  C 27.9763062787224 21.648044686153  28.0315149586397 22.4802543271821  27.9155767348346 23.1988056472252  C 27.7991784524357 23.9337314789871  27.5024318129596 24.5270661031789  27.1472560029871 24.7389713261045  C 26.9682878619026 24.8535927397629  26.7796582490809 24.8362550511853  26.5956293026195 24.8362550511853  C 24.9844561351103 24.8343286132812  23.3737430261949 24.8381814890894  21.7630299172794 24.8352918743265  C 21.4280972886029 24.8372183122306  21.0982254653033 24.5135812062231  20.8842918255974 23.9751492625269  C 20.6307919806985 23.3558081054688  20.5475189223346 22.4552108869882  20.6717384018842 21.6817568864493  Z " fill-rule="nonzero" fill="#02a7f0" stroke="none" transform="matrix(1 0 0 1 718 774 )" />
  </g>
</svg>