<?xml version="1.0" encoding="utf-8"?>
<svg version="1.1" xmlns:xlink="http://www.w3.org/1999/xlink" width="55px" height="28px" xmlns="http://www.w3.org/2000/svg">
  <g transform="matrix(1 0 0 1 -859 -775 )">
    <path d="M 0 25.7131303883421  C 0 24.8016581292439  0.681417813655458 24.1180539482719  1.81711415200263 24  L 52.923450176162 24  C 53.8320072787812 24.1180539482719  54.7405643281646 24.8016581292439  54.7405643814004 25.9409984664683  C 54.7405643814004 26.8524707255665  54.0591465677449 27.7639429312581  52.923450176162 27.7639429312581  L 1.81711415200263 27.7639429312581  C 0.681417813655458 27.5360748531319  0 26.8524706721599  0 25.7131303883421  Z M 37.2508404620865 2.01485213244831  C 37.4779797510502 0.875511848630505  38.1593975647057 0.191907667658504  39.0679546673248 0.191907614251924  L 42.4750437356021 0.191907614251924  C 43.3836008382214 0.191907614251924  44.2921578876048 0.875511795223926  44.2921578876048 2.01485213244831  C 44.2921578876048 2.9263243915465  43.6107400739493 3.83779659723812  42.4750437356021 3.83779659723812  L 39.0679546673248 3.83779659723812  C 38.1593975647056 3.83779659723812  37.2508405153222 3.15419241626612  37.2508404620865 2.01485213244831  Z M 37.2508404620865 8.85089394216831  C 37.4779797510502 7.7115536583505  38.1593975647057 7.0279494773785  39.0679546673248 7.02794942397192  L 42.4750437356021 7.02794942397192  C 43.3836008382214 7.02794942397192  44.2921578876048 7.71155360494392  44.2921578876048 8.85089394216831  C 44.2921578876048 9.76236620126651  43.6107400739493 10.6738384069581  42.4750437356021 10.6738384069581  L 39.0679546673248 10.6738384069581  C 38.1593975647056 10.6738384069581  37.2508405153222 9.99023422598612  37.2508404620865 8.85089394216831  Z M 37.2508404620865 15.6869357518883  C 37.4779797510502 14.5475954680705  38.1593975647057 13.8639912870985  39.0679546673248 13.8639912336919  L 42.4750437356021 13.8639912336919  C 43.3836008382214 13.8639912336919  44.2921578876048 14.5475954146639  44.2921578876048 15.6869357518883  C 44.2921578876048 16.5984080109865  43.6107400739493 17.5098802166781  42.4750437356021 17.5098802166781  L 39.0679546673248 17.5098802166781  C 38.1593975647056 17.5098802166781  37.2508405153222 16.8262760357061  37.2508404620865 15.6869357518883  Z " fill-rule="nonzero" fill="#02a7f0" stroke="none" transform="matrix(1 0 0 1 859 775 )" />
  </g>
</svg>