<?xml version="1.0" encoding="utf-8"?>
<svg version="1.1" xmlns:xlink="http://www.w3.org/1999/xlink" width="44px" height="50px" xmlns="http://www.w3.org/2000/svg">
  <g transform="matrix(1 0 0 1 -866 -753 )">
    <path d="M 23 16.9253613042461  C 23.2208762792746 16.2449590163934  22.991165602134 15.3377559482044  22.531744301691 14.6573536603517  L 15.6404245258547 2.41011247900321  C 14.0324498935467 -0.538297452743935  9.43823672760199 -0.538297452743935  7.83026209529403 2.41011247900321  L 0.938942319457701 14.6573536603517  C 0.479521019014757 15.3377559482044  0.249810341874067 16.2449590163934  1 16.9253613042461  L 1 49  L 23 49  L 23 16.9253613042461  Z M 20 45.7290581212392  L 19.7752163913565 45  L 4 45  L 4 16.2449590163934  C 3.69547022979223 16.0181582360571  3.69547022979223 15.7913575088771  3.92518090693292 15.7913574557207  L 10.8165006827693 3.54411627437222  C 11.2759219832122 2.86371398651953  12.4244753150772 2.86371398651953  12.8838966155202 3.54411627437222  L 19.7752163913565 15.7913574557207  C 19.7752163913565 16.0181582360571  20.0049270684972 16.244958963237  20 16.2449590163934  L 20 45.7290581212392  Z M 43.8948356067836 18.0593650996151  C 43.8948356067836 15.5645567285408  41.8274396740327 13.5233498649827  39.3006223870005 13.5233498649827  L 30.112196055111 13.5233498649827  C 27.5853788219171 13.5233498649827  25.5179828891662 15.5645567285408  25 18.0593650996151  L 25 49  L 43.8948356067836 49  L 43.8948356067836 18.0593650996151  Z M 40 18.0593650996151  L 40 46  L 29 46  L 29 18.0593650996151  C 28.963642723246 17.3789628117625  29.4230640236889 16.9253613042461  30.112196055111 16.9253613042461  L 39.3006223870005 16.9253613042461  C 39.9897543645841 16.9253613042461  40.449175665027 17.3789628117625  40 18.0593650996151  Z " fill-rule="nonzero" fill="#02a7f0" stroke="none" transform="matrix(1 0 0 1 866 753 )" />
  </g>
</svg>