<?xml version="1.0" encoding="utf-8"?>
<svg version="1.1" xmlns:xlink="http://www.w3.org/1999/xlink" width="10px" height="24px" xmlns="http://www.w3.org/2000/svg">
  <g transform="matrix(1 0 0 1 -872 -770 )">
    <path d="M 9.71687976653696 2.49376992961133  C 9.71687976653696 1.15070168320727  8.76820455808783 0.255322834783369  7.34519177320734 0.255322887246972  L 2.60181584213452 0.255322887246972  C 1.17880305725403 0.255322887246972  0.230127848804892 1.15070173567088  0.230127848804892 2.49376992961133  L 0.230127848804892 6.97066411926726  C 0.230127848804892 8.31373236567131  1.17880305725403 9.20911121409522  2.60181584213452 9.20911116163162  L 7.34519177320734 9.20911116163162  C 8.76820455808783 9.20911116163162  9.71687976653696 8.31373231320771  9.71687976653696 6.97066411926726  L 9.71687976653696 2.49376992961133  Z M 6.15934780433574 3.61299350325711  L 6.15934780433574 5.85144054562147  L 3.78765981100611 5.85144054562147  L 3.78765981100611 3.61299350325711  L 6.15934780433574 3.61299350325711  Z M 9.71687976653696 17.0436759672977  C 9.71687976653696 15.7006077208936  8.76820455808783 14.8052288724697  7.34519177320734 14.8052288724697  L 2.60181584213452 14.8052288724697  C 1.17880305725403 14.8052288724697  0.230127848804892 15.7006077208936  0.230127848804892 17.0436759672977  L 0.230127848804892 21.52057010449  C 0.230127848804892 22.8636383508941  1.17880305725403 23.759017199318  2.60181584213452 23.759017199318  L 7.34519177320734 23.759017199318  C 8.76820455808783 23.759017199318  9.71687976653696 22.8636383508941  9.71687976653696 21.52057010449  L 9.71687976653696 17.0436759672977  Z M 6.15934780433574 18.1628994884799  L 6.15934780433574 20.4013465833078  L 3.78765981100611 20.4013465833078  L 3.78765981100611 18.1628994884799  L 6.15934780433574 18.1628994884799  Z " fill-rule="nonzero" fill="#02a7f0" stroke="none" transform="matrix(1 0 0 1 872 770 )" />
  </g>
</svg>