<?xml version="1.0" encoding="utf-8"?>
<svg version="1.1" xmlns:xlink="http://www.w3.org/1999/xlink" width="55px" height="48px" xmlns="http://www.w3.org/2000/svg">
  <g transform="matrix(1 0 0 1 -1007 -753 )">
    <path d="M 11.0163744923342 0.253681215213359  L 11.0191077393644 0.252319109461967  L 11.7420530679934 20.4292325139147  C 15.9047226864061 15.1251923236835  22.3024836227127 12.0483553333574  29.0585747622432 12.1013010667904  C 37.482459187904 12.1013010667904  44.2759584560192 16.3020437384045  49.3133429239855 24.5441623376623  L 52.4565833840999 22.6985053339518  C 52.6902297384822 22.5611974322285  52.9565146044231 22.4887786503714  53.2277513102833 22.4887786503714  C 53.9991323918733 22.4887786503714  54.6479189948388 23.0652662581188  54.7361160608522 23.829055380334  L 54 24.0020431818182  L 54 47.2968229591837  L 51 47.2968229591837  L 51 26.6472578849722  L 42.2000531018378 32.2319027829313  L 42 31.8927378014842  L 42 47.2968229591837  L 39 47.2968229591837  L 39 26.6472578849722  L 30 31.4146377087198  L 30 46.2316541280148  C 30.8444884097396 46.9969505937987  30.2693806974431 47.6403456762093  29.5068281593732 47.7299734693877  L 29.3291667301249 47  L 17.5228822638508 47  C 16.685091055563 47.7408703617811  16.0059270907368 47.0639515670865  16 46.228929916512  L 16 30.9351755102041  C 16.0054603289845 30.3996104297613  16.2892961677073 29.903762530378  16.7521050191221 29.6316376623377  L 28.5529230378719 22.6985053339518  C 28.7867494463194 22.5606897243401  29.053416296546 22.4879844522768  29.3250670493036 22.4879844522768  C 30.1628582575914 22.4879844522768  30.8420222224176 23.1649032469714  30.8420222224176 23.9999248975458  L 30.8420220326937 27.9072082560297  L 39.7073267844451 22.6985053339518  C 39.9411864100337 22.5606358577896  40.2079062420844 22.487900570002  40.4796130979852 22.487900570002  C 41.2511035153266 22.487900570002  41.8997134684135 23.0650367347994  41.9868594146614 23.829055380334  L 41.9964257792669 24.0020431818182  L 41.9964257792669 28.8457010204082  L 46.6976202110197 26.0819828849722  C 42.187753443666 18.7265968923933  36.3536258376485 15.1279062152134  29.0585747622432 15.1279062152134  C 22.0272825371442 15.1279062152134  16.3489502910617 18.4705205009276  11.9169812036755 25.2919599257885  L 12.7219240828172 47  L 0.0122996581717308 47  L 1.71374937810945 0.253681215213359  L 11.0163744923342 0.253681215213359  Z M 9.5732171286425 44.7251621057514  L 9.53768487071446 43.7144775974026  L 3.19380562324432 43.7144775974026  L 3.15827336531628 44.7251621057514  L 9.5732171286425 44.7251621057514  Z M 27 26.6472578849722  L 27.8040118159204 26.6486199907236  L 19 31.7973901669759  L 19 44.7224378942486  L 27 44.7224378942486  L 27 26.6472578849722  Z M 8.39655190882323 11.9487448979592  L 8.39791853233831 11.9487448979592  L 4.33083871459031 11.9487448979592  L 3.3017691136156 40.689234554731  L 9.4283547568281 40.689234554731  L 8.39655190882323 11.9487448979592  Z M 33.0600565116594 33.5490617346939  L 36.0953334814025 33.5490617346939  L 36.0953334814025 37.3629655844156  L 33.0600565116594 37.3629655844156  L 33.0600565116594 33.5490617346939  Z M 45.8079465343351 33.5490617346939  L 48.8432235040782 33.5490617346939  L 48.8432235040782 37.3629655844156  L 45.8079465343351 37.3629655844156  L 45.8079465343351 33.5490617346939  Z M 21.9056527650861 33.5490617346939  L 24.9409297348293 33.5490617346939  L 24.9409297348293 37.3629655844156  L 21.9056527650861 37.3629655844156  L 21.9056527650861 33.5490617346939  Z M 8.08769438944732 3.27756210575139  L 8.0890610129624 3.27756210575139  L 4.64516272802653 3.27756210575139  L 4.44290207550682 8.92213979591837  L 8.28995504196704 8.92213979591837  L 8.08769438944732 3.27756210575139  Z " fill-rule="nonzero" fill="#02a7f0" stroke="none" transform="matrix(1 0 0 1 1007 753 )" />
  </g>
</svg>