<?xml version="1.0" encoding="utf-8"?>
<svg version="1.1" xmlns:xlink="http://www.w3.org/1999/xlink" width="55px" height="49px" xmlns="http://www.w3.org/2000/svg">
  <g transform="matrix(1 0 0 1 -1154 -754 )">
    <path d="M 39.38 23.3224094881398  L 41.0055555555556 23.3224094881398  C 42.625 23.3224094881398  43.9388888888889 24.6590511860175  43.9388888888889 26.2587390761548  L 43.9388888888889 26.5431960049938  L 44.2475 26.665543071161  L 44.4613888888889 26.4514357053683  C 45.0104568541921 25.8972319650897  45.7579011662564 25.5854960678424  46.5376388888889 25.5854960678424  C 47.3173766115214 25.5854960678424  48.0648209235857 25.8972319650897  48.6138888888889 26.4514357053683  L 49.7597222222222 27.5953807740325  C 50.3097222222222 28.1459425717853  50.6152777777778 28.880024968789  50.6152777777778 29.669163545568  C 50.6152777777778 30.4583021223471  50.3097222222222 31.1985018726592  49.7597222222222 31.7460049937578  L 49.5458333333333 31.9601123595506  L 49.665 32.2720973782772  L 49.9491666666667 32.2720973782772  C 51.5716666666667 32.2720973782772  52.8825 33.5842696629214  52.8825 35.2084269662921  L 52.8825 36.8295255930087  C 52.8825 38.4506242197253  51.5716666666667 39.7627965043695  49.9491666666667 39.7627965043695  L 49.665 39.7627965043695  L 49.5427777777778 40.071722846442  L 49.7566666666667 40.2858302122347  C 50.3066666666667 40.8363920099875  50.6183333333333 41.5765917602996  50.6183333333333 42.3657303370787  C 50.6183333333333 43.1518102372035  50.3066666666667 43.8920099875156  49.7597222222222 44.4395131086142  L 48.6138888888889 45.5834581772784  C 48.06338612678 46.1356715929669  47.3154483128065 46.4450615995943  46.5361111111111 46.4429463171036  C 45.7591940653233 46.4404007088869  45.0142709829263 46.1329021586099  44.4613888888889 45.5865168539326  L 44.2719444444445 45.3938202247191  L 43.9633333333333 45.5131086142322  L 43.9633333333333 45.8006242197253  C 43.9633333333333 47.421722846442  42.6494444444445 48.7369538077403  41.03 48.7369538077403  L 39.4044444444445 48.7369538077403  C 37.7844091782741 48.7369538077403  36.4711111111111 47.422314271663  36.4711111111111 45.8006242197254  L 36.4711111111111 45.5131086142322  L 36.1594444444444 45.3938202247191  L 35.9455555555556 45.6079275905119  C 35.3950527934467 46.1601410062003  34.6471149794731 46.4695310128278  33.8677777777778 46.4674157303371  C 33.0899386011906 46.4695264566165  32.3433129456498 46.1613250971692  31.7930555555556 45.6109862671661  L 30.6258333333333 44.4395131086142  C 29.4816087162903 43.2930311066238  29.4816087162903 41.4353708908793  30.6258333333333 40.2888888888889  L 30.8397222222222 40.0747815230961  L 30.7205555555556 39.7627965043696  L 30.4333333333333 39.7627965043696  C 28.813298067163 39.7627965043696  27.5 38.4481569682922  27.5 36.8264669163546  L 27.5 35.205368289638  C 27.5 33.5842696629214  28.8138888888889 32.269038701623  30.4333333333333 32.269038701623  L 30.7205555555556 32.269038701623  L 30.8427777777778 31.9631710362048  L 30.6258333333333 31.7460049937578  C 30.074360999976 31.1960725353945  29.765245268941 30.4483715632161  29.7672222222222 29.6691635455681  C 29.7672222222222 28.8830836454432  30.0758333333333 28.1428838951311  30.6227777777778 27.5953807740325  L 31.7716666666667 26.4483770287141  C 32.3216666666667 25.8978152309613  33.0580555555555 25.5919475655431  33.8463888888889 25.5919475655431  C 34.6347222222222 25.5919475655431  35.3741666666667 25.8978152309613  35.9241666666667 26.4483770287141  L 36.1380555555556 26.6624843945069  L 36.4466666666667 26.5431960049938  L 36.4466666666667 26.2587390761548  C 36.4466666666667 24.6376404494382  37.7605555555555 23.3224094881398  39.38 23.3224094881398  Z M 41.0025 25.4481897627965  L 41.0055555555556 25.4481897627965  L 39.38 25.4481897627965  C 39.3779551952326 25.4481741369711  39.3759103383314 25.4481663239731  39.3738654739826 25.4481663239731  C 38.9300433125213 25.4481663239731  38.5702543628715 25.8083227802109  38.5702543628715 26.252598284023  C 38.5702543628715 26.2546452370995  38.5702621678971 26.2566921827206  38.5702777777778 26.2587390761548  L 38.5702777777778 27.2375156054931  C 38.5702777777778 27.6657303370787  38.2127777777778 28.1428838951311  37.7819444444444 28.2866416978777  L 36.4222222222222 28.8586142322097  C 36.2661111246238 28.9355285588386  36.0950678973285 28.9772890318821  35.9211111111111 28.980961298377  C 35.6295015842908 28.9793683591043  35.349167558558 28.8679937363365  35.1358333333333 28.6689762796504  L 34.4422222222222 27.9777153558052  C 34.2957847425669 27.818361509432  34.0869874137906 27.731180615408  33.8708333333333 27.739138576779  C 33.6545009389538 27.7350311478751  33.4462765519609 27.8215103610417  33.2963888888889 27.9777153558052  L 32.1536111111111 29.1216604244694  C 31.8438859895416 29.4399529331483  31.8438859895416 29.9473129844547  32.1536111111111 30.2656054931336  L 32.8441666666667 30.959925093633  C 33.1626735322697 31.3096084374877  33.2375976256416 31.8176771849236  33.0336111111111 32.2445692883895  L 32.4622222222222 33.6056803995006  C 32.3096543147792 34.0604760239107  31.8929882668526 34.374206770635  31.4141666666667 34.3948189762797  L 30.4363888888889 34.3948189762797  C 30.4333255792558 34.3947839054005  30.430262094324 34.3947663695309  30.4271985843492 34.3947663695309  C 29.9833764228879 34.3947663695309  29.623587473238 34.7549228257688  29.623587473238 35.1991983295808  C 29.623587473238 35.2012550056194  29.623595352587 35.2033116740956  29.6236111111111 35.205368289638  L 29.6236111111111 36.8264669163546  C 29.6236111111111 37.2822097378277  29.9811111111111 37.640074906367  30.4333333333333 37.640074906367  L 31.4111111111111 37.640074906367  C 31.8663888888889 37.640074906367  32.3186111111111 37.9979400749064  32.4622222222222 38.4261548064919  L 33.0336111111111 39.787265917603  C 33.2475 40.1696004993758  33.1558333333333 40.7660424469413  32.8441666666667 41.0749687890137  L 32.1536111111111 41.7662297128589  C 31.8418965752649 42.0848997987352  31.8418965752648 42.594563372301  32.1536111111111 42.9132334581773  L 33.2963888888889 44.0571785268414  C 33.4462765519609 44.213383521605  33.6545009389538 44.2998627347716  33.8708333333333 44.2957553058677  C 34.0847222222222 44.2957553058677  34.2741666666667 44.2254057428215  34.4422222222222 44.0571785268414  L 35.1358333333333 43.3659176029962  C 35.3496329940808 43.1680138834695  35.6299140815726 43.0577519945415  35.9211111111111 43.0569912609238  C 36.1136111111111 43.0569912609238  36.2786111111111 43.1028714107366  36.4222222222222 43.1762796504369  L 37.7819444444444 43.748252184769  C 38.2097222222222 43.8675405742821  38.5702777777778 44.3446941323346  38.5702777777778 44.7973782771535  L 38.5702777777778 45.7761548064919  C 38.5702777777778 46.2288389513109  38.9277777777778 46.5867041198502  39.38 46.5867041198502  L 41.0025 46.5867041198502  C 41.0055633096334 46.5867391907293  41.0086267945646 46.5867567265989  41.0116903045397 46.5867567265989  C 41.455512466001 46.5867567265989  41.8153014156508 46.2266002703611  41.8153014156508 45.782324766549  C 41.8153014156508 45.7802680905104  41.8152935363019 45.7782114220342  41.8152777777778 45.7761548064919  L 41.8152777777778 44.7973782771535  C 41.8152777777778 44.369163545568  42.1727777777778 43.8920099875156  42.6005555555556 43.748252184769  L 43.9633333333333 43.1762796504369  C 44.3986364773334 42.9633573542253  44.9197389967045 43.0385698137283  45.2772222222222 43.3659176029962  L 45.2741666666667 43.3659176029962  L 45.9647222222222 44.0571785268414  C 46.1118613762285 44.217363503742  46.3219608428724 44.3046214701334  46.5391666666667 44.2957553058677  C 46.7530555555556 44.2957553058677  46.9455555555556 44.2254057428215  47.1105555555555 44.0571785268414  L 48.2563888888889 42.9132334581773  C 48.5681034247351 42.594563372301  48.5681034247351 42.0848997987352  48.2563888888889 41.7662297128589  L 47.5658333333333 41.0749687890137  C 47.244973943061 40.725369185809  47.1687639881164 40.2155729374336  47.3733333333333 39.787265917603  L 47.9447222222222 38.4261548064919  C 48.0987125220769 37.9715528876967  48.5166698310803 37.6589809471618  48.9958333333333 37.640074906367  L 49.9736111111111 37.640074906367  C 49.9766744207442 37.6401099772462  49.979737905676 37.6401275131158  49.9828014156508 37.6401275131158  C 50.4266235771121 37.6401275131158  50.7864125267619 37.2799710568779  50.7864125267619 36.8356955530658  C 50.7864125267619 36.8336388770273  50.786404647413 36.8315822085511  50.7863888888889 36.8295255930087  L 50.7863888888889 35.2084269662921  C 50.7864241473563 35.2053507687937  50.7864417770251 35.2022743941365  50.7864417770251 35.1991979941707  C 50.7864417770251 34.7549224903586  50.4266528273753 34.3947660341208  49.982830665914 34.3947660341208  C 49.9797574051319 34.3947660341208  49.9766841696324 34.3947836817974  49.9736111111111 34.3948189762796  L 48.9958333333333 34.3948189762796  C 48.5208813243447 34.3616846929021  48.109485238708 34.052822463134  47.9447222222222 33.6056803995006  L 47.3733333333333 32.2476279650437  C 47.1696336871912 31.8191909020351  47.2457675155279 31.3099038923694  47.5658333333333 30.9599250936329  L 48.2563888888889 30.2656054931336  C 48.5661140104583 29.9473129844547  48.5661140104583 29.4399529331483  48.2563888888889 29.1216604244694  L 47.1105555555555 27.9777153558052  C 46.9641180759003 27.818361509432  46.7553207471239 27.7311806154079  46.5391666666667 27.739138576779  C 46.3228342722871 27.7350311478751  46.1146098852942 27.8215103610416  45.9647222222222 27.9777153558052  L 45.2741666666667 28.6689762796504  C 45.0479355748196 28.8643803367349  44.7601667689581 28.9737575453495  44.4613888888889 28.9779026217228  C 44.2883476817335 28.9775748140018  44.117783303123 28.9367232467302  43.9633333333333 28.8586142322097  L 42.6005555555556 28.2866416978776  C 42.1468933661221 28.1336321645806  41.834545224073 27.7163370430263  41.8152777777778 27.2375156054931  L 41.8152777777778 26.2587390761548  C 41.8152935363019 26.2566824606126  41.8153014156508 26.2546257921361  41.8153014156508 26.2525691160977  C 41.8153014156508 25.8082936122856  41.455512466001 25.4481371560477  41.0116903045397 25.4481371560477  C 41.0086267945646 25.4481371560477  41.0055633096333 25.4481546919174  41.0025 25.4481897627965  Z M 37.9408333333333 0  L 37.9377777777778 0.0305867665418236  C 39.8933333333333 0.0305867665418236  41.6502777777778 0.489388264669164  43.01 1.36111111111111  C 44.4552777777778 2.28177278401998  45.4238888888889 3.65511860174782  45.8211111111111 5.3312734082397  L 47.795 12.9014981273408  L 52.3905555555556 12.9014981273408  C 53.8266666666667 12.9014981273408  54.9969444444445 13.8343945068664  54.9969444444445 14.9813982521848  L 54.9969444444445 15.9357053682896  C 54.9969444444445 17.0521223470662  53.8938888888889 17.9666666666667  52.5127777777778 18.0156054931336  L 52.2866666666667 18.0461922596754  C 52.58 18.8047440699126  52.7297222222222 19.6061173533084  52.7327777777778 20.4472534332085  L 53.2644444444444 26.7175405742822  C 52.299392912598 25.5979188621327  51.1836356283739 24.6179318388938  49.9491666666667 23.8056803995006  C 49.8972222222222 22.8024344569288  49.8391666666667 21.7013108614232  49.7688888888889 20.5145443196005  L 49.7688888888889 20.4839575530587  C 49.7688888888889 19.465418227216  49.5091666666667 18.5661672908864  48.9744444444444 17.7311485642946  C 48.8814519781266 17.587492035188  48.8319710677065 17.4199689942276  48.8319710677065 17.248789344862  C 48.8319710677065 16.7960433898778  49.1725925867427 16.4159570672305  49.6222222222222 16.3669787765293  L 52.3905555555555 16.042759051186  C 52.4669444444444 16.042759051186  52.5280555555555 15.9968789013733  52.5280555555555 15.9357053682896  L 52.5280555555555 14.9875156054931  C 52.5280555555555 14.9263420724095  52.4669444444444 14.8774032459426  52.3905555555555 14.8774032459426  L 47.7094444444444 15.3056179775281  C 46.2752958893784 15.4377925868198  44.943652680936 14.5495484367636  44.5133333333333 13.173720349563  L 42.6616666666667 7.24294631710362  C 42.4237685393711 6.08735427317095  41.7295734301714 5.07698563392713  40.7366666666667 4.44119850187266  C 39.82 3.85699126092384  38.5977777777778 3.54500624219725  37.2044444444444 4  L 17.3983333333333 4  C 15.9072222222222 3.54500624219725  14.6636111111111 3.89675405742821  13.7011111111111 4.59413233458177  C 12.8107331777872 5.23455182913177  12.1831001843553 6.17696296329413  11.935 7.2460049937578  L 10.1230555555556 13.173720349563  C 9.69582720240737 14.5703000468851  8.3417961731932 15.4696390843063  6.89027777777778 15.320911360799  L 2.60333333333333 14.8743445692884  C 2.53 14.8743445692884  2.46888888888889 14.9263420724095  2.46888888888889 14.984456928839  L 2.46888888888889 15.9357053682896  C 2.46888888888889 15.9968789013733  2.53 16.042759051186  2.60333333333333 16.042759051186  L 5.68944444444444 16.3853308364544  C 6.17527777777778 16.4373283395755  6.52361111111111 16.8747191011236  6.46861111111111 17.3579900124844  L 6.42583333333333 17.5568039950062  L 6.33416666666667 17.7403245942572  C 5.8025 18.5661672908864  5.54583333333333 19.4623595505618  5.54583333333333 20.4808988764045  L 5.54277777777778 20.5481897627965  C 5.35517482656632 23.405499491378  5.21561803308361 26.2657670786273  5.12416666666667 29.1277777777778  C 5.07519137269658 32.0985701223028  5.07519137269658 35.0699692035399  5.12416666666667 38.0407615480649  C 5.12416666666667 38.5729712858926  5.66805555555556 39.0073033707865  6.33416666666667 39.0073033707865  L 8.635 39.0073033707865  C 9.29805555555556 39.0073033707865  9.84194444444445 38.5729712858926  9.84194444444445 38.0407615480649  L 9.84194444444445 35.7406367041198  C 9.84214879374805 34.1899646285588  11.0015495084955 32.8847994074439  12.54 32.7033707865168  L 12.8975 32  L 26.0058333333333 32  C 25.6636111111111 33.8595505617978  25.4558333333333 35.0983146067416  25.4008333333333 36  L 12.7111111111111 36  L 12.7111111111111 40.3470037453183  C 12.7111111111111 41.968102372035  11.0611111111111 43.2894506866417  9.03527777777778 43.2894506866417  L 5.29833333333333 43.2894506866417  C 3.26944444444444 43.2894506866417  1.61944444444444 41.968102372035  2 40.3470037453183  L 2 29.5988139825219  C 1.61944444444444 29.4764669163546  1.63166666666667 29.3541198501873  1.65305555555556 29.2195380774032  C 1.63076910034323 29.0419860881146  1.61954369648674 28.8632177009488  1.61944444444444 28.6842696629213  L 1.61944444444444 28.6200374531835  L 2.30694444444444 20.4472534332085  C 2.31305555555556 19.6091760299625  2.45972222222222 18.8078027465668  2.75 18.0553682896379  L 2.48111111111111 18.0156054931336  C 1.10305555555556 17.9666666666667  0 17.0521223470662  0 15.9357053682896  L 0 14.9813982521848  C 0 13.8313358302122  1.16722222222222 12.8984394506866  2.60333333333333 12.8984394506866  L 7.24166666666667 12.8984394506866  L 9.21555555555556 5.32515605493134  C 9.58014588334692 3.8117917787148  10.4813801636759 2.48247204706638  11.7516666666667 1.58439450686642  C 13.1572222222222 0.568913857677903  15.0119444444444 0.0305867665418236  17.1019444444444 0  L 37.9408333333333 0  Z M 40.1897222222222 31.9601123595506  L 40.1897222222222 31.9631710362047  C 40.2269103559254 31.9621515250924  40.264110690215 31.9616416978777  40.3013127677253 31.9616416978777  C 42.5524867730079 31.9616416978777  44.3774238788365 33.7884428865518  44.3774238788365 36.0419163545568  C 44.3774238788365 38.2953898225618  42.5524867730079 40.122191011236  40.3013127677253 40.122191011236  C 40.264110690215 40.122191011236  40.2269103559254 40.1216811840212  40.1897222222222 40.1206616729089  C 37.9385480954621 40.1206616729089  36.1136109896335 38.2938604842347  36.1136109896335 36.0403870162297  C 36.1136109896335 33.7869135482247  37.9385480954621 31.9601123595506  40.1897221007446 31.9601123595506  Z M 42.1452777777778 36.0403870162297  C 42.1402601402924 34.9613476592532  41.2676605186304 34.0878567203066  40.1897222222222 34.082833957553  C 39.1117839258141 34.0878567203066  38.2391843041521 34.9613476592532  38.2341666666667 36.0403870162297  C 38.2341666666667 37.1139825218477  39.1141666666667 37.9979400749064  40.1897222222222 37.9979400749064  C 41.2622222222222 37.9979400749064  42.1452777777778 37.1384519350811  42.1452777777778 36.0403870162297  Z M 8.28055555555556 26.9255305867666  C 8.28055555555556 24.7477528089888  10.4958333333333 22.9737203495631  13.2183333333333 22.973720349563  C 15.9408333333333 22.973720349563  18.1561111111111 24.7477528089888  18.1561111111111 26.9255305867665  C 18.1561111111111 29.1033083645443  15.9408333333333 30.8712234706617  13.2183333333333 30.8712234706617  C 10.4958333333333 30.8712234706617  8.28055555555556 29.1033083645443  8.28055555555556 26.9255305867666  Z M 22.4094444444444 24  L 32.7983333333333 24  C 32.9388888888889 23.35911360799  33.0794444444444 23.3682896379526  33.2138888888889 23.3897003745318  C 32.2666666666667 23.9494382022472  31.3866666666667 24.5978776529338  30.5830555555556 25.3319600499376  L 22.5438888888889 25.3319600499376  L 22.5438888888889 27.5953807740325  L 28.5297222222222 27.5953807740325  C 28.0622222222222 28.2193508114856  27.6436111111111 28.880024968789  27.2708333333333 29.5712858926342  L 22.4125 29.5712858926342  C 21.12 29.5712858926342  20.0719444444444 28.7332084893883  20.0719444444444 27.7024344569288  L 20.0719444444444 25.2249063670412  C 20.0719444444444 24.197191011236  21.12 23.35911360799  22.4094444444444 24  Z M 13.0288888888889 24.7997503121099  L 13.0288888888889 24.7966916354557  C 11.9472222222222 24.7966916354557  11.0641666666667 25.7387640449438  11.0641666666667 26.8949438202247  C 11.0641666666667 28.0480649188514  11.9472222222222 28.9870786516854  13.0288888888889 28.9870786516854  C 14.1136111111111 28.9870786516854  14.9936111111111 28.0480649188514  14.9936111111111 26.8949438202247  C 14.9936111111111 25.7387640449438  14.1136111111111 24.7997503121099  13.0288888888889 24.7997503121099  Z M 16.5122222222222 6  L 38.7077777777778 6  C 39.8902777777778 5.48420724094882  40.9261111111111 6.22746566791511  41.3233333333333 7.31329588014982  L 41.4241666666667 7.64975031210987  C 42.4752777777778 11.2865168539326  42.9702777777778 13.4214731585518  42.9091666666667 14.0546192259675  C 42.8175 15.002808988764  42.1452777777778 16.2507490636704  41.0116666666667 16.9236579275905  C 39.9909232880056 17.520036878591  38.8323929899784 17.839485282989  37.6505555555555 18  L 17.5602777777778 18  C 16.4175 17.8504369538077  15.1922222222222 17.5139825218477  14.1991666666667 16.9236579275905  C 13.0655555555556 16.2507490636704  12.3902777777778 15.002808988764  12.2986111111111 14.0546192259675  C 12.2375 13.4214731585518  12.7263888888889 11.3079275905119  13.7713888888889 7.71092384519351  L 13.7866666666667 7.6436329588015  C 14.0844830690211 6.37789316062505  15.2131750285894 5.48364375152487  16.5122222222222 6  Z M 38.4908333333333 8.98027465667915  C 37.3694444444444 8.37465667915106  17.4380555555556 8.37465667915106  16.5061111111111 8.97721598002497  C 15.5741666666667 9.57671660424469  14.8805555555556 12.2347066167291  15.0883333333333 12.9810237203496  C 15.2991666666667 13.7242821473159  16.2494444444444 14.4675405742821  17.4594444444444 15  L 37.5527777777778 15  C 38.7658333333333 14.4675405742821  39.5755555555556 13.7242821473159  39.7833333333333 12.9810237203496  C 39.9911111111111 12.2347066167291  39.6122222222222 9.58589263420724  38.4908333333333 8.98027465667915  Z " fill-rule="nonzero" fill="#02a7f0" stroke="none" transform="matrix(1 0 0 1 1154 754 )" />
  </g>
</svg>