<?xml version="1.0" encoding="utf-8"?>
<svg version="1.1" xmlns:xlink="http://www.w3.org/1999/xlink" width="51px" height="45px" xmlns="http://www.w3.org/2000/svg">
  <g transform="matrix(1 0 0 1 -678 -220 )">
    <path d="M 33.4211753731343 42.2274502840909  C 33.4211753731343 41.5882457386364  32.1525186567164 41.0688920454545  31.5181902985075 41  L 19.902052238806 41  C 19.267723880597 41.0688920454545  18.0387126865672 41.5882457386364  18.0387126865672 42.2274502840909  L 16.571828358209 44  L 34.8880597014925 44  L 33.4211753731343 42.2274502840909  Z M 46.2663246268657 30  C 49.2000932835821 30.6019176136364  51.1823694029851 28.2049005681818  50.6669776119403 25.4483309659091  L 46.1870335820896 3.63547585227273  C 45.7112873134328 1.39825994318182  43.4911380597015 0.0399502840909132  41.3106343283582 0.0399502840909132  C 33.4211753731343 0.0799005681818218  16.6511194029851 0.0399502840909132  8.7616604477612 0.0399502840909132  C 6.58115671641791 0.0399502840909132  5.23320895522388 1.39825994318182  4.71781716417911 3.63547585227273  L 0.198227611940299 25.4483309659091  C -0.356809701492537 28.2448508522727  1.66511194029851 30.6418678977273  4.63852611940298 30  L 23 30  L 23 40.3497869318182  L 28.9808768656716 40.3497869318182  L 28.9808768656716 30  L 46.2663246268657 30  Z M 47.2971082089552 25.3284801136364  C 47.5349813432836 26.5669389204545  46.5438432835821 27.8453480113636  45.2751865671642 27  L 5.59001865671642 27  C 4.32136194029851 27.8852982954546  3.36986940298507 26.5669389204546  3.56809701492537 25.3684303977273  L 7.33442164179105 3.955078125  C 7.53264925373134 2.75656960227273  8.32555970149254 2.55681818181818  8.99953358208955 3  L 41.826026119403 3  C 42.5 2.55681818181818  43.3325559701493 2.71661931818182  43.5307835820895 3.91512784090909  L 47.2971082089552 25.3284801136364  Z " fill-rule="nonzero" fill="#21ad36" stroke="none" transform="matrix(1 0 0 1 678 220 )" />
  </g>
</svg>