<?xml version="1.0" encoding="utf-8"?>
<svg version="1.1" xmlns:xlink="http://www.w3.org/1999/xlink" width="36px" height="19px" xmlns="http://www.w3.org/2000/svg">
  <g transform="matrix(1 0 0 1 -685 -225 )">
    <path d="M 24.7341549295775 6.8984375  C 24.7737676056338 7.25  25.1698943661972 7.5234375  25.6056338028169 7.5234375  L 33.5281690140845 7.5234375  C 33.9242957746479 7.5234375  34.2015845070423 7.25  34.1619718309859 6.8984375  L 33.0528169014084 0.7265625  C 32.9735915492958 0.375  32.6170774647887 0.101562499999998  32.2209507042254 0.101562499999998  L 24.9322183098592 0.101562499999998  C 24.5360915492958 0.101562499999998  24.2984154929578 0.374999999999998  24.2984154929578 0.7265625  L 24.7341549295775 6.8984375  Z M 23.0308098591549 10.7265625  C 22.9911971830986 10.3359375  22.6346830985916 10.0234375  22.1593309859155 10.0234375  L 13.8010563380282 10.0234375  C 13.3653169014085 10.0234375  13.0088028169014 10.3359375  12.9691901408451 10.7265625  L 12.612676056338 18.2265625  C 12.5730633802817 18.6171875  12.9295774647887 18.96875  13.4049295774648 18.96875  L 22.6346830985916 18.96875  C 23.0704225352113 18.96875  23.4269366197183 18.6171875  23.387323943662 18.2265625  L 23.0308098591549 10.7265625  Z M 34.7165492957746 10.84375  C 34.637323943662 10.453125  34.2411971830986 10.1015625  33.7658450704225 10.1015625  L 25.7244718309859 10.1015625  C 25.2887323943662 10.1015625  24.9718309859155 10.4140625  25.0114436619718 10.84375  L 25.6452464788732 18.1875  C 25.6848591549296 18.6171875  26.1205985915493 18.9296875  26.5959507042254 18.9296875  L 35.231514084507 18.9296875  C 35.6672535211268 18.9296875  35.9841549295775 18.6171875  35.9049295774648 18.1875  L 34.7165492957746 10.84375  Z M 13.2068661971831 6.7421875  C 13.1672535211268 7.09375  13.5237676056338 7.4453125  13.9595070422535 7.4453125  L 22.1197183098592 7.4453125  C 22.5554577464789 7.4453125  22.9119718309859 7.09375  22.8723591549296 6.7421875  L 22.5158450704225 0.804687500000002  C 22.4762323943662 0.414062500000002  22.1197183098592 0.140625000000002  21.6839788732394 0.140625000000002  L 14.3952464788732 0.140625000000002  C 13.9595070422535 0.140625000000002  13.6029929577465 0.453125000000002  13.5633802816901 0.804687500000002  L 13.2068661971831 6.7421875  Z M 11.7808098591549 0.7265625  C 11.7808098591549 0.4140625  11.5431338028169 0.1015625  11.1470070422535 0.1015625  L 3.85827464788732 0.1015625  C 3.46214788732394 0.1015625  3.06602112676056 0.375  2.98679577464789 0.7265625  L 1.91725352112676 6.859375  C 1.83802816901409 7.2109375  2.11531690140845 7.484375  2.55105633802817 7.484375  L 10.4735915492958 7.484375  C 10.8697183098592 7.484375  11.3054577464789 7.2109375  11.3054577464789 6.859375  L 11.7808098591549 0.7265625  Z M 11.0281690140845 10.84375  C 11.0677816901408 10.4140625  10.7904929577465 10.1015625  10.3547535211268 10.1015625  L 2.31338028169014 10.1015625  C 1.87764084507042 10.1015625  1.4419014084507 10.4140625  1.36267605633803 10.84375  L 0.174295774647887 18.1875  C 0.0950704225352113 18.6171875  0.411971830985916 18.9296875  0.847711267605634 18.9296875  L 9.48327464788732 18.9296875  C 9.91901408450704 18.9296875  10.3943661971831 18.6171875  10.4339788732394 18.1875  L 11.0281690140845 10.84375  Z " fill-rule="nonzero" fill="#21ad36" stroke="none" transform="matrix(1 0 0 1 685 225 )" />
  </g>
</svg>