<?xml version="1.0" encoding="utf-8"?>
<svg version="1.1" xmlns:xlink="http://www.w3.org/1999/xlink" width="73px" height="63px" xmlns="http://www.w3.org/2000/svg">
  <g transform="matrix(1 0 0 1 -672 -412 )">
    <path d="M 24.3941435247248 62.6302201788651  L 24.3837722622958 62.6302201788651  L 70.6551612093839 53.0126273398951  L 72.195293680087 52.6913500064247  C 72.5478194836218 52.6158939287863  72.8002651987767 52.3054155619854  72 51.9451574899774  L 72 10.3760145957545  C 72.8016164113192 10.0587730232047  72.6057938358564 9.77452005493826  72.3093776478161 9.66091343415913  L 47.7605985873136 0.406053068462171  C 47.6287922540544 0.354247126035983  47.4852104010622 0.339899292708859  47.3457480901545 0.364597928659539  L 0.820263213556463 9.37072737458881  C 0.465677438529919 9.44406623413325  0.210629509829741 9.75508675510222  1 10.1169199719881  L 1 51.6290620489823  C 0.208358649236505 51.9347937050267  0.389855741743608 52.2094340062192  0.664694196111505 52.3337994256271  L 23.9274367154208 62.5835830656353  C 24.0726343894265 62.6457657753392  24.2385745882901 62.6613114527652  24.3941435247248 62.6302201788651  Z M 13.110209596946 12.5420457313939  L 13.120580859375 12.5368638389186  C 12.7627723055753 12.3969527420847  12.8094429865057 11.8787634945518  13.1879940651634 11.8062169189453  L 46.2567654541016 5.40657955001028  C 46.3962277650093 5.3818809140596  46.5398096180015 5.39622874738672  46.6716159512606 5.44803468981291  L 60.2787127441406 9.83191588584498  C 60.6417069291548 9.96146319772821  60.5898506170099 10.4848343377364  60.2164851695668 10.557380832391  L 24.3059877940785 16.8222890779194  C 24.1665254831708 16.8469877138701  24.0229436301785 16.832639880543  23.8911372969194 16.7808339381168  L 13.110209596946 12.5420457313939  Z M 14.2510484641335 24.2013042056435  C 14.5436672659223 24.3158879606328  14.7368037192852 24.5971710754424  15 24.9112234747636  L 15 51.2715114681846  C 14.7385026721311 51.2722885692207  14.7385050685609 51.2730656831709  14.7385050685609 51.2738427989657  C 14.7385050685609 51.4827600527909  14.5690219776779 51.6521209496647  14.3599539899032 51.6521209496647  C 14.306311213941 51.6521209496647  14.2532809630926 51.6407283759496  14.2043777832031 51.6186982640317  L 10.3618249722568 49.8672185264186  C 10.0828395101221 49.746040411614  9.90180857528676 49.4716409537963  10 49.1676630422492  L 10 23.0353783177426  C 9.83289050736861 22.7659199090255  10.1077289617365 22.584553672389  10.3618249722568 22.6830096294202  L 14.2510484641335 24.2013042056435  Z M 58.6037538618608 47.0949059711657  L 58.6089394930753 47.0897240786904  C 58.1240902345396 47.0812072304632  57.7371590589673 46.6829786124742  57 46.1984384919819  L 57 20.724254192794  C 57.7371244217864 20.2416932367627  58.1209426149741 19.8442888618027  58.6037538618608 19.8329686870374  L 61.9121866577148 19.3458707943565  C 62.3909989956602 19.3569210257459  62.7733897646301 19.7479629656184  62.7733897646301 20.2265576751082  C 62.7733897646301 20.2352738824177  62.7732603086037 20.2439896097121  62 20.2527019775391  L 62 45.7165224917763  C 62.7816926751485 46.2010905218036  62.3970497380244 46.601664363701  61.9121866577148 46.6129899709601  L 58.6037538618608 47.0949059711657  Z M 49.1088627030806 48.929295988384  L 45.8004299072266 49.400848203639  C 45.3176186602547 49.389527985046  44.9338005027407 48.9921235735286  45 48.5095626169305  L 45 23.0457421026933  C 44.939448663198 23.0387547999955  44.9393654231445 23.0317657650649  44.9393654231445 23.024776482642  C 44.9393654231445 22.546235627308  45.321673192996 22.1552170493765  45.8004299072266 22.144092811986  L 49.1088627030806 21.6673587042558  C 49.5896924558684 21.6757042969133  49.9751103994779 22.0675920168843  49.9751103994779 22.5481475733262  C 49.9751103994779 22.5551017784893  49.9750279928451 22.5620557398686  50 22.569007994963  L 50 48.0380104016756  C 49.9806431371886 48.5225505221679  49.5937119616163 48.9207791401569  49.1088627030806 48.929295988384  Z M 36.3107244606712 51.1367822638261  L 33.0022915838068 51.6186982640317  C 32.5215047299324 51.6102947401897  32.1361515022273 51.2184249739294  32.1361515022273 50.7379112693605  C 32.1361515022273 50.7326841306286  32.1361980603247 50.7274570954226  33 50.7222307848479  L 33 25.2532283781353  C 32.1361980612858 25.2480020945281  32.136151503669 25.2427750863009  32.136151503669 25.2375479745494  C 32.136151503669 24.7570342705412  32.5215047305072 24.3651645045214  33.0022915838068 24.3567609799034  L 36.3107244606712 23.8748449796978  C 36.7878025324041 23.8748449796978  37.1767248734908 24.2790325927734  37 24.776494270405  L 37 50.2506785695929  C 37.1796404563695 50.7332063281552  36.7935341251166 51.1282757085219  36.3107244606712 51.1367822638261  Z " fill-rule="nonzero" fill="#ffffff" stroke="none" transform="matrix(1 0 0 1 672 412 )" />
  </g>
</svg>