<?xml version="1.0" encoding="utf-8"?>
<svg version="1.1" xmlns:xlink="http://www.w3.org/1999/xlink" width="271px" height="84px" viewBox="1039 406  271 84" xmlns="http://www.w3.org/2000/svg">
  <path d="M 1040 411  A 4 4 0 0 1 1044 407 L 1305 407  A 4 4 0 0 1 1309 411 L 1309 485  A 4 4 0 0 1 1305 489 L 1044 489  A 4 4 0 0 1 1040 485 L 1040 411  Z " fill-rule="nonzero" fill="#ffffff" stroke="none" />
  <path d="M 1039.5 411  A 4.5 4.5 0 0 1 1044 406.5 L 1305 406.5  A 4.5 4.5 0 0 1 1309.5 411 L 1309.5 485  A 4.5 4.5 0 0 1 1305 489.5 L 1044 489.5  A 4.5 4.5 0 0 1 1039.5 485 L 1039.5 411  Z " stroke-width="1" stroke-dasharray="3,1" stroke="#d7d7d7" fill="none" stroke-dashoffset="0.5" />
</svg>