<?xml version="1.0" encoding="utf-8"?>
<svg version="1.1" xmlns:xlink="http://www.w3.org/1999/xlink" width="283px" height="84px" viewBox="622 406  283 84" xmlns="http://www.w3.org/2000/svg">
  <path d="M 623 411  A 4 4 0 0 1 627 407 L 900 407  A 4 4 0 0 1 904 411 L 904 485  A 4 4 0 0 1 900 489 L 627 489  A 4 4 0 0 1 623 485 L 623 411  Z " fill-rule="nonzero" fill="#ffffff" stroke="none" />
  <path d="M 622.5 411  A 4.5 4.5 0 0 1 627 406.5 L 900 406.5  A 4.5 4.5 0 0 1 904.5 411 L 904.5 485  A 4.5 4.5 0 0 1 900 489.5 L 627 489.5  A 4.5 4.5 0 0 1 622.5 485 L 622.5 411  Z " stroke-width="1" stroke-dasharray="3,1" stroke="#d7d7d7" fill="none" stroke-dashoffset="0.5" />
</svg>