<?xml version="1.0" encoding="utf-8"?>
<svg version="1.1" xmlns:xlink="http://www.w3.org/1999/xlink" width="13px" height="13px" viewBox="1039 630  13 13" xmlns="http://www.w3.org/2000/svg">
  <path d="M 1045.5 630  C 1049.14 630  1052 632.86  1052 636.5  C 1052 640.14  1049.14 643  1045.5 643  C 1041.86 643  1039 640.14  1039 636.5  C 1039 632.86  1041.86 630  1045.5 630  Z " fill-rule="nonzero" fill="#f0f0f0" stroke="none" />
  <path d="M 1045.5 630.5  C 1048.86 630.5  1051.5 633.14  1051.5 636.5  C 1051.5 639.86  1048.86 642.5  1045.5 642.5  C 1042.14 642.5  1039.5 639.86  1039.5 636.5  C 1039.5 633.14  1042.14 630.5  1045.5 630.5  Z " stroke-width="1" stroke="#797979" fill="none" />
  <path d="M 1045.5 639.75  C 1043.68 639.75  1042.25 638.32  1042.25 636.5  C 1042.25 634.68  1043.68 633.25  1045.5 633.25  C 1047.32 633.25  1048.75 634.68  1048.75 636.5  C 1048.75 638.32  1047.32 639.75  1045.5 639.75  " fill-rule="nonzero" fill="#797979" stroke="none" />
</svg>