<?xml version="1.0" encoding="utf-8"?>
<svg version="1.1" xmlns:xlink="http://www.w3.org/1999/xlink" width="13px" height="13px" viewBox="1131 630  13 13" xmlns="http://www.w3.org/2000/svg">
  <path d="M 1137.5 630  C 1141.14 630  1144 632.86  1144 636.5  C 1144 640.14  1141.14 643  1137.5 643  C 1133.86 643  1131 640.14  1131 636.5  C 1131 632.86  1133.86 630  1137.5 630  Z " fill-rule="nonzero" fill="#f0f0f0" stroke="none" />
  <path d="M 1137.5 630.5  C 1140.86 630.5  1143.5 633.14  1143.5 636.5  C 1143.5 639.86  1140.86 642.5  1137.5 642.5  C 1134.14 642.5  1131.5 639.86  1131.5 636.5  C 1131.5 633.14  1134.14 630.5  1137.5 630.5  Z " stroke-width="1" stroke="#797979" fill="none" />
  <path d="M 1137.5 639.75  C 1135.68 639.75  1134.25 638.32  1134.25 636.5  C 1134.25 634.68  1135.68 633.25  1137.5 633.25  C 1139.32 633.25  1140.75 634.68  1140.75 636.5  C 1140.75 638.32  1139.32 639.75  1137.5 639.75  " fill-rule="nonzero" fill="#797979" stroke="none" />
</svg>