<?xml version="1.0" encoding="utf-8"?>
<svg version="1.1" xmlns:xlink="http://www.w3.org/1999/xlink" width="93px" height="32px" xmlns="http://www.w3.org/2000/svg">
  <g transform="matrix(1 0 0 1 -1170 -767 )">
    <path d="M 1171 772  A 4 4 0 0 1 1175 768 L 1258 768  A 4 4 0 0 1 1262 772 L 1262 794  A 4 4 0 0 1 1258 798 L 1175 798  A 4 4 0 0 1 1171 794 L 1171 772  Z " fill-rule="nonzero" fill="#ffffff" stroke="none" />
    <path d="M 1170.5 772  A 4.5 4.5 0 0 1 1175 767.5 L 1258 767.5  A 4.5 4.5 0 0 1 1262.5 772 L 1262.5 794  A 4.5 4.5 0 0 1 1258 798.5 L 1175 798.5  A 4.5 4.5 0 0 1 1170.5 794 L 1170.5 772  Z " stroke-width="1" stroke="#797979" fill="none" stroke-opacity="0.36470588235294116" />
  </g>
</svg>