<?xml version="1.0" encoding="utf-8"?>
<svg version="1.1" xmlns:xlink="http://www.w3.org/1999/xlink" width="30px" height="30px" xmlns="http://www.w3.org/2000/svg">
  <g transform="matrix(1 0 0 1 -99 -125 )">
    <path d="M 114 126  C 121.84 126  128 132.16  128 140  C 128 147.84  121.84 154  114 154  C 106.16 154  100 147.84  100 140  C 100 132.16  106.16 126  114 126  Z " fill-rule="nonzero" fill="#ffffff" stroke="none" />
    <path d="M 114 126  C 121.84 126  128 132.16  128 140  C 128 147.84  121.84 154  114 154  C 106.16 154  100 147.84  100 140  C 100 132.16  106.16 126  114 126  Z " stroke-width="2" stroke="#108ee9" fill="none" />
  </g>
</svg>