<?xml version="1.0" encoding="utf-8"?>
<svg version="1.1" xmlns:xlink="http://www.w3.org/1999/xlink" width="12px" height="14px" xmlns="http://www.w3.org/2000/svg">
  <g transform="matrix(1 0 0 1 -1612 -417 )">
    <path d="M 1.1666666718750003 12.034722216796874  L 1.1666666718749996 2.8333333333333335  L 0.5 2.8333333333333335  C 0.22385762508460347 2.8333333333333335  0 2.600148307203538  0 2.3125  C 0 2.024851692796462  0.22385762508460347 1.7916666666666665  0.5 1.7916666666666665  C 0.5 1.7916666666666665  0.5 1.7916666666666665  0.5 2  L 11.5 2  C 11.5 1.7916666666666665  11.5 1.7916666666666665  11.5 1.7916666666666665  C 11.776142374915397 1.7916666666666665  12 2.024851692796462  12 2.3125  C 12 2.600148307203538  11.776142374915397 2.8333333333333335  11.5 2.8333333333333335  L 2.1666666718750003 2.8333333333333335  L 2.1666666718750003 12.034722216796874  C 2.166666671874999 12.51413607541581  2.5397627113508214 12.902777783203126  3 12.902777783203126  L 9 12.902777783203126  C 9.460237288649179 12.902777783203126  9.833333328124999 12.51413607541581  9.833333328124999 12.034722233072918  L 9.833333328124999 4.395833333333333  C 9.833333328124999 4.108185026129794  10.057190953209604 3.875  10.333333328125 3.875  C 10.609475703040397 3.875  10.833333328125 4.108185026129794  10.833333328125 4.395833333333333  L 10.833333328125 12.034722216796874  C 10.833333328125 13.089409716796876  10.0125 13.944444433593752  9 13.944444449869792  L 3 13.944444449869792  C 1.9874999999999998 13.944444449869792  1.1666666718750003 13.089409733072916  1.1666666718750003 12.034722216796874  Z M 7.333333328124999 1.0972222167968748  L 4.666666671874999 1.0972222167968748  C 4.390524296959603 1.0972222167968748  4.166666671874999 0.8640371906670795  4.166666671874999 0.5763888834635414  C 4.166666671874999 0.2887405762600033  4.390524296959603 0.055555550130208076  4.666666671874999 0.055555550130208076  L 7.333333328124999 0.055555550130208076  C 7.609475703040396 0.055555550130208076  7.833333328124999 0.2887405762600033  7.833333328124999 0.5763888834635414  C 7.833333328124999 0.8640371906670795  7.609475703040396 1.0972222167968748  7.333333328124999 1.0972222167968748  Z M 4.166666671874999 9.95138888346354  L 4.166666671874999 5.784722216796875  C 4.166666671874999 5.497073909593336  4.390524296959603 5.263888883463542  4.666666671874999 5.263888883463542  C 4.942809046790396 5.263888883463542  5.166666671874999 5.497073909593336  5.166666671874999 5.784722216796875  L 5.166666671874999 9.95138888346354  C 5.166666671874999 10.23903719066708  4.942809046790396 10.472222216796876  4.666666671874999 10.472222216796876  C 4.390524296959603 10.472222216796876  4.166666671874999 10.23903719066708  4.166666671874999 9.95138888346354  Z M 6.833333328124999 9.95138888346354  L 6.833333328124999 5.784722216796875  C 6.833333328124999 5.497073909593336  7.057190953209602 5.263888883463542  7.333333328124999 5.263888883463542  C 7.609475703040396 5.263888883463542  7.833333328124999 5.497073909593336  7.833333328124999 5.784722216796875  L 7.833333328124999 9.95138888346354  C 7.833333328124999 10.23903719066708  7.609475703040396 10.472222216796876  7.333333328124999 10.472222216796876  C 7.057190953209602 10.472222216796876  6.833333328124999 10.23903719066708  6.833333328124999 9.95138888346354  Z " fill-rule="nonzero" fill="#000000" stroke="none" transform="matrix(1 0 0 1 1612 417 )" />
  </g>
</svg>