<?xml version="1.0" encoding="utf-8"?>
<svg version="1.1" xmlns:xlink="http://www.w3.org/1999/xlink" width="13px" height="7px" xmlns="http://www.w3.org/2000/svg">
  <g transform="matrix(1 0 0 1 -15 -171 )">
    <path d="M 0.368400621118012 6.68987341772152  C 0.355784161490683 6.70371835443038  0.330551242236025 6.70371835443038  0.305318322981366 6.70371835443038  C 0.242236024844721 6.70371835443038  0.191770186335404 6.67602848101266  0.141304347826087 6.63449367088608  C 0.078222049689441 6.57911392405063  0.0403726708074531 6.48219936708861  0.0529891304347826 6.39912974683544  L 0.55764751552795 0.279667721518987  C 0.57026397515528 0.14121835443038  0.683812111801242 0.0304588607594943  0.809976708074534 0.0304588607594943  L 2.47534937888199 0.0304588607594943  C 2.60151397515528 0.0304588607594943  2.71506211180124 0.14121835443038  2.72767857142857 0.279667721518987  L 3.18187111801242 5.62381329113924  C 3.19448757763975 5.76226265822785  3.11878881987578 5.8868670886076  2.99262422360249 5.91455696202532  L 0.368400621118012 6.68987341772152  Z M 1.04968944099379 0.570411392405063  L 1.04968944099379 0.584256329113925  L 0.595496894409938 6.05300632911392  L 2.66459627329192 5.42998417721519  L 2.24825310559006 0.570411392405063  L 1.04968944099379 0.570411392405063  Z M 9.41440217391304 5.99762658227848  C 9.40178571428571 6.13607594936709  9.28823757763975 6.26068037974684  9.14945652173913 6.26068037974684  L 9.09899068322981 6.26068037974684  L 7.00465838509317 5.84533227848101  C 6.87849378881987 5.81764240506329  6.79017857142857 5.69303797468355  6.8027950310559 5.55458860759494  L 7.14343944099379 1.23496835443038  C 7.15605590062112 1.09651898734177  7.26960403726708 0.985759493670887  7.39576863354037 0.985759493670887  L 8.78357919254658 0.985759493670887  C 8.90974378881988 0.985759493670887  9.02329192546584 1.09651898734177  9.03590838509317 1.23496835443038  L 9.40178571428571 5.92840189873418  C 9.40178571428571 5.94224683544304  9.41440217391304 5.96993670886076  9.41440217391304 5.99762658227848  Z M 7.63548136645963 1.52571202531646  L 7.3200698757764 5.33306962025316  L 8.87189440993789 5.6376582278481  L 8.55648291925466 1.52571202531646  L 7.63548136645963 1.52571202531646  Z M 12.9596273291925 6.70371835443038  C 12.9596273291925 6.84216772151899  12.8460791925466 6.96677215189874  12.6946816770186 6.96677215189873  L 12.6442158385093 6.96677215189873  L 10.5498835403727 6.55142405063291  C 10.4237189440994 6.52373417721519  10.3354037267081 6.39912974683544  10.3480201863354 6.26068037974684  L 10.6886645962733 1.96875  C 10.7012810559006 1.83030063291139  10.8148291925466 1.71954113924051  10.9409937888199 1.71954113924051  L 12.3288043478261 1.71954113924051  C 12.4549689440994 1.71954113924051  12.5685170807453 1.83030063291139  12.5811335403727 1.96875  L 12.9470108695652 6.63449367088608  C 12.9470108695652 6.64833860759494  12.9596273291925 6.67602848101266  12.9596273291925 6.70371835443038  Z M 11.1807065217391 2.24564873417722  L 10.8779114906832 6.03916139240506  L 12.4297360248447 6.34375  L 12.1017080745342 2.24564873417722  L 11.1807065217391 2.24564873417722  Z " fill-rule="nonzero" fill="#303c42" stroke="none" transform="matrix(1 0 0 1 15 171 )" />
  </g>
</svg>