<?xml version="1.0" encoding="utf-8"?>
<svg version="1.1" xmlns:xlink="http://www.w3.org/1999/xlink" width="9px" height="7px" xmlns="http://www.w3.org/2000/svg">
  <g transform="matrix(1 0 0 1 -19 -176 )">
    <path d="M 8.93140243902439 6.72310126582278  C 8.94283536585366 6.87539556962025  8.83993902439024 6.98615506329114  8.71417682926829 6.98615506329114  L 0.288109756097561 6.98615506329114  C 0.16234756097561 6.98615506329114  0.0594512195121951 6.86155063291139  0.0594512195121951 6.70925632911392  L 0.0594512195121951 0.312895569620253  C 0.0594512195121951 0.229825949367089  0.093749999999999 0.146756329113923  0.139481707317073 0.105221518987342  C 0.196646341463415 0.0498417721518975  0.265243902439024 0.035996835443038  0.322408536585366 0.0498417721518975  L 8.7484756097561 1.90506329113924  C 8.86280487804878 1.93275316455696  8.93140243902439 2.04351265822785  8.93140243902439 2.18196202531646  L 8.93140243902439 6.72310126582278  Z M 0.516768292682927 0.645174050632911  L 0.516768292682927 6.43235759493671  L 8.48551829268293 6.43235759493671  L 8.48551829268293 2.40348101265823  L 0.516768292682927 0.645174050632911  Z " fill-rule="nonzero" fill="#303c42" stroke="none" transform="matrix(1 0 0 1 19 176 )" />
  </g>
</svg>