<?xml version="1.0" encoding="utf-8"?>
<svg version="1.1" xmlns:xlink="http://www.w3.org/1999/xlink" width="14px" height="7px" xmlns="http://www.w3.org/2000/svg">
  <g transform="matrix(1 0 0 1 -13 -176 )">
    <path d="M 13.9835349462366 3.16495253164557  C 13.9717741935484 3.23417721518987  13.9247311827957 3.27571202531646  13.8659274193548 3.27571202531646  L 13.8424059139785 3.27571202531646  L 13.0661962365591 3.10957278481013  C 13.0073924731183 3.09572784810127  12.9603494623656 3.02650316455696  12.9721102150538 2.9434335443038  C 12.9838709677419 2.87420886075949  13.0426747311828 2.81882911392405  13.1132392473118 2.83267405063291  L 13.8894489247312 2.99881329113924  C 13.948252688172 3.0126582278481  13.9952956989247 3.08188291139241  13.9835349462366 3.16495253164557  Z M 12.2547043010753 2.81882911392405  C 12.2429435483871 2.88805379746835  12.1959005376344 2.92958860759494  12.1370967741935 2.92958860759494  L 12.1135752688172 2.92958860759494  L 11.5020161290323 2.80498417721519  C 11.4432123655914 2.79113924050633  11.3961693548387 2.72191455696203  11.4079301075269 2.63884493670886  C 11.4196908602151 2.56962025316456  11.4784946236559 2.51424050632911  11.5490591397849 2.52808544303797  L 12.1606182795699 2.65268987341772  C 12.2194220430108 2.66653481012658  12.2664650537634 2.73575949367089  12.2547043010753 2.81882911392405  Z M 10.6552419354839 2.5557753164557  C 10.6552419354839 2.61115506329114  10.6081989247312 2.65268987341772  10.5493951612903 2.65268987341772  L 10.5141129032258 2.65268987341772  L 9.78494623655914 2.43117088607595  C 9.72614247311828 2.41732594936709  9.67909946236559 2.33425632911392  9.70262096774193 2.26503164556962  C 9.71438172043011 2.19580696202532  9.78494623655914 2.14042721518987  9.84375 2.16811708860759  L 10.5729166666667 2.38963607594937  C 10.6317204301075 2.40348101265823  10.6787634408602 2.48655063291139  10.6552419354839 2.5557753164557  Z M 9.03225806451613 2.22349683544304  C 9.02049731182796 2.27887658227848  8.97345430107527 2.32041139240506  8.91465053763441 2.32041139240506  L 8.89112903225806 2.32041139240506  L 8.13844086021505 2.09889240506329  C 8.07963709677419 2.08504746835443  8.0325940860215 2.00197784810127  8.05611559139785 1.93275316455696  C 8.06787634408602 1.86352848101266  8.13844086021505 1.80814873417722  8.19724462365591 1.83583860759494  L 8.94993279569892 2.05735759493671  C 9.00873655913978 2.07120253164557  9.05577956989247 2.15427215189873  9.03225806451613 2.22349683544304  Z M 6.32728494623656 6.70925632911392  C 6.32728494623656 6.87539556962025  6.22143817204301 6.98615506329114  6.09206989247312 6.98615506329114  L 0.294018817204301 6.98615506329114  C 0.164650537634409 6.98615506329114  0.0588037634408602 6.86155063291139  0.0588037634408602 6.70925632911392  L 0.0588037634408602 2.16811708860759  C 0.0588037634408602 2.04351265822785  0.129368279569892 1.93275316455696  0.235215053763441 1.90506329113924  L 6.03326612903226 0.0498417721518975  C 6.10383064516129 0.022151898734176  6.17439516129032 0.0498417721518975  6.23319892473118 0.0913765822784798  C 6.29200268817204 0.146756329113923  6.32728494623656 0.229825949367087  6.32728494623656 0.312895569620251  L 6.32728494623656 6.70925632911392  Z M 0.529233870967742 2.37579113924051  L 0.529233870967742 6.43235759493671  L 5.85685483870968 6.43235759493671  L 5.85685483870968 0.686708860759494  L 0.529233870967742 2.37579113924051  Z " fill-rule="nonzero" fill="#303c42" stroke="none" transform="matrix(1 0 0 1 13 176 )" />
  </g>
</svg>