<?xml version="1.0" encoding="utf-8"?>
<svg version="1.1" xmlns:xlink="http://www.w3.org/1999/xlink" width="13px" height="10px" xmlns="http://www.w3.org/2000/svg">
  <g transform="matrix(1 0 0 1 -14 -168 )">
    <path d="M 0.156798245614035 9.99087591240876  L 0.121162280701754 9.99087591240876  C 0.0736476608187133 9.99087591240876  0.0261330409356725 9.95666058394161  0.00237573099415191 9.9110401459854  C -0.00950292397660819 9.85401459854015  0.0261330409356725 9.78558394160584  0.0855263157894735 9.77417883211679  L 1.15460526315789 9.48905109489051  C 1.2139985380117 9.47764598540146  1.28527046783626 9.51186131386861  1.29714912280702 9.56888686131387  C 1.30902777777778 9.62591240875912  1.2733918128655 9.69434306569343  1.2139985380117 9.70574817518248  L 0.156798245614035 9.99087591240876  Z M 1.70102339181287 9.61450729927007  L 1.67726608187135 9.61450729927007  C 1.6297514619883 9.61450729927007  1.58223684210526 9.58029197080292  1.55847953216374 9.53467153284672  C 1.54660087719298 9.47764598540146  1.58223684210526 9.40921532846715  1.64163011695906 9.3978102189781  L 2.71070906432749 9.11268248175183  C 2.77010233918129 9.10127737226277  2.84137426900585 9.13549270072993  2.85325292397661 9.19251824817518  C 2.86513157894737 9.24954379562044  2.82949561403509 9.31797445255475  2.77010233918129 9.3293795620438  L 1.70102339181287 9.61450729927007  Z M 3.25712719298246 9.22673357664234  L 3.23336988304094 9.22673357664234  C 3.18585526315789 9.22673357664234  3.13834064327485 9.19251824817518  3.11458333333333 9.14689781021898  C 3.10270467836257 9.08987226277372  3.13834064327485 9.02144160583942  3.19773391812865 9.01003649635036  L 4.26681286549708 8.72490875912409  C 4.32620614035088 8.71350364963504  4.39747807017544 8.74771897810219  4.4093567251462 8.80474452554745  C 4.42123538011696 8.8617700729927  4.38559941520468 8.93020072992701  4.32620614035088 8.94160583941606  L 3.25712719298246 9.22673357664234  Z M 2.59192251461988 3.17062043795621  C 2.59192251461988 3.29607664233577  2.48501461988304 3.39872262773723  2.35434941520468 3.39872262773723  C 2.22368421052632 3.39872262773723  2.11677631578947 3.29607664233577  2.11677631578947 3.17062043795621  L 2.11677631578947 2.38366788321168  C 2.11677631578947 2.32664233576642  2.14053362573099 2.26961678832117  2.18804824561404 2.22399635036496  L 3.13834064327485 1.27737226277372  C 3.23336988304094 1.18613138686132  3.37591374269006 1.18613138686132  3.47094298245614 1.27737226277372  C 3.56597222222222 1.36861313868613  3.56597222222222 1.50547445255475  3.47094298245614 1.59671532846715  L 2.59192251461988 2.47490875912409  L 2.59192251461988 3.17062043795621  Z M 2.5562865497076 1.33439781021898  C 2.50877192982456 1.38001824817518  2.44937865497076 1.40282846715329  2.38998538011696 1.40282846715329  C 2.33059210526316 1.40282846715329  2.27119883040936 1.38001824817518  2.22368421052632 1.33439781021898  C 2.12865497076023 1.24315693430657  2.12865497076023 1.10629562043796  2.22368421052632 1.01505474452555  L 3.17397660818714 0.0684306569343066  C 3.26900584795322 -0.0228102189781022  3.41154970760234 -0.0228102189781022  3.50657894736842 0.0684306569343066  C 3.6016081871345 0.159671532846715  3.6016081871345 0.296532846715328  3.50657894736842 0.387773722627737  L 2.5562865497076 1.33439781021898  Z M 8.68567251461988 4.11724452554745  C 8.68567251461988 4.24270072992701  8.57876461988304 4.34534671532847  8.44809941520468 4.34534671532847  C 8.31743421052632 4.34534671532847  8.21052631578947 4.24270072992701  8.21052631578947 4.11724452554745  L 8.21052631578947 3.33029197080292  C 8.21052631578947 3.27326642335766  8.23428362573099 3.21624087591241  8.28179824561403 3.17062043795621  L 9.23209064327485 2.22399635036496  C 9.32711988304093 2.13275547445256  9.46966374269006 2.13275547445256  9.56469298245614 2.22399635036496  C 9.65972222222222 2.31523722627737  9.65972222222222 2.45209854014599  9.56469298245614 2.54333941605839  L 8.68567251461988 3.42153284671533  L 8.68567251461988 4.11724452554745  Z M 8.6500365497076 2.28102189781022  C 8.61440058479532 2.32664233576642  8.54312865497076 2.34945255474453  8.48373538011696 2.34945255474453  C 8.42434210526316 2.34945255474453  8.36494883040936 2.32664233576642  8.31743421052631 2.28102189781022  C 8.22240497076023 2.18978102189781  8.22240497076023 2.0529197080292  8.31743421052631 1.96167883211679  L 9.26772660818713 1.01505474452555  C 9.36275584795321 0.923813868613139  9.50529970760234 0.923813868613139  9.60032894736842 1.01505474452555  C 9.6953581871345 1.10629562043796  9.6953581871345 1.24315693430657  9.60032894736842 1.33439781021898  L 8.6500365497076 2.28102189781022  Z M 11.9641812865497 4.72171532846715  C 11.9641812865497 4.84717153284672  11.8572733918129 4.94981751824818  11.7266081871345 4.94981751824818  C 11.5959429824561 4.94981751824818  11.4890350877193 4.84717153284672  11.4890350877193 4.72171532846715  L 11.4890350877193 3.93476277372263  C 11.4890350877193 3.87773722627737  11.5127923976608 3.82071167883212  11.5603070175439 3.77509124087591  L 12.5105994152047 2.82846715328467  C 12.6056286549708 2.73722627737226  12.7481725146199 2.73722627737226  12.843201754386 2.82846715328467  C 12.938230994152 2.91970802919708  12.938230994152 3.05656934306569  12.843201754386 3.1478102189781  L 11.9641812865497 4.02600364963504  L 11.9641812865497 4.72171532846715  Z M 11.9285453216374 2.88549270072993  C 11.8929093567251 2.93111313868613  11.8216374269006 2.95392335766423  11.7622441520468 2.95392335766423  C 11.702850877193 2.95392335766423  11.6434576023392 2.93111313868613  11.5959429824561 2.88549270072993  C 11.5009137426901 2.79425182481752  11.5009137426901 2.6573905109489  11.5959429824561 2.5661496350365  L 12.546235380117 1.61952554744526  C 12.641264619883 1.52828467153285  12.7838084795322 1.52828467153285  12.8788377192982 1.61952554744526  C 12.9738669590643 1.71076642335766  12.9738669590643 1.84762773722628  12.8788377192982 1.93886861313869  L 11.9285453216374 2.88549270072993  Z " fill-rule="nonzero" fill="#303c42" stroke="none" transform="matrix(1 0 0 1 14 168 )" />
  </g>
</svg>