<?xml version="1.0" encoding="utf-8"?>
<svg version="1.1" xmlns:xlink="http://www.w3.org/1999/xlink" width="10px" height="10px" xmlns="http://www.w3.org/2000/svg">
  <g transform="matrix(1 0 0 1 -16 -218 )">
    <path d="M 3.35354989035088 1.05641592920354  C 3.87438322368421 0.833448561946902  4.42776864035088 0.721100663716814  5 0.721100663716814  C 5.57223135964912 0.721100663716814  6.12561677631579 0.833448561946903  6.64645010964912 1.05641592920354  C 7.15015076754386 1.27074115044248  7.60245339912281 1.58012997787611  7.99136513157895 1.97248340707965  C 8.38027686403509 2.36483683628319  8.6852384868421 2.8211421460177  8.89939692982456 3.32930033185841  C 9.12040844298246 3.85474280973451  9.23177083333333 4.41475387168142  9.23177083333333 4.99032079646018  C 9.23177083333333 5.56588772123894  9.12040844298246 6.12589878318584  8.89939692982456 6.65134126106195  C 8.68695175438597 7.15949944690266  8.38027686403509 7.61580475663717  7.99136513157895 8.00815818584071  C 7.60245339912281 8.40051161504425  7.15015076754386 8.70817201327434  6.64645010964912 8.92422566371681  C 6.12561677631579 9.14719303097345  5.57223135964912 9.25954092920354  5 9.25954092920354  C 4.42776864035088 9.25954092920354  3.87438322368421 9.14719303097345  3.35354989035088 8.92422566371681  C 2.84984923245614 8.70990044247788  2.39754660087719 8.40051161504425  2.00863486842105 8.00815818584071  C 1.61972313596491 7.61580475663717  1.31476151315789 7.15949944690266  1.10060307017544 6.65134126106195  C 0.879591557017544 6.12589878318584  0.768229166666667 5.56761615044248  0.768229166666667 4.99032079646018  C 0.768229166666667 4.41302544247788  0.879591557017544 3.85474280973451  1.10060307017544 3.32930033185841  C 1.31304824561403 2.8211421460177  1.61972313596491 2.36483683628319  2.00863486842105 1.97248340707965  C 2.39754660087719 1.58012997787611  2.84984923245614 1.27246957964602  3.35354989035088 1.05641592920354  Z M 9.91707785087719 4.99032079646018  C 9.91707785087719 2.25076050884956  7.71552905701754 0.029728982300885  5 0.0297289823008843  C 2.28447094298246 0.0297289823008843  0.082922149122807 2.25076050884956  0.082922149122807 4.99032079646018  C 0.082922149122807 7.7298810840708  2.28447094298246 9.95091261061947  5 9.95091261061947  C 7.71552905701754 9.95091261061947  9.91707785087719 7.7298810840708  9.91707785087719 4.99032079646018  Z " fill-rule="nonzero" fill="#000000" stroke="none" transform="matrix(1 0 0 1 16 218 )" />
  </g>
</svg>