<?xml version="1.0" encoding="utf-8"?>
<svg version="1.1" xmlns:xlink="http://www.w3.org/1999/xlink" width="15px" height="10px" xmlns="http://www.w3.org/2000/svg">
  <g transform="matrix(1 0 0 1 -14 -223 )">
    <path d="M 14.5999710648148 6.27580275229358  C 14.9273003472222 6.0123996559633  15.1027199074074 5.48559346330275  14.6216724537037 4.7993119266055  C 14.3268952546296 4.38001720183486  13.84765625 3.99655963302752  13.3394820601852 3.77795298165138  C 12.7173755787037 3.50917431192661  12.1205873842593 3.50738245412844  11.6576244212963 3.77436926605505  C 9.95949074074074 4.75630733944954  7.646484375 5.85471616972477  7.62478298611111 5.86546731651376  L 7.60850694444444 5.87442660550459  C 7.5904224537037 5.88338589449541  5.8326099537037 6.80798451834862  4.22670717592593 5.62356651376147  C 4.06575520833333 5.50530389908257  3.83969907407407 5.53755733944954  3.72034143518519 5.69703268348624  C 3.6009837962963 5.85650802752293  3.63353587962963 6.08049025229358  3.79448784722222 6.19875286697248  C 4.6119068287037 6.80260894495413  5.59027777777778 7.04630160550459  6.62290219907407 6.90653669724771  C 7.34809027777778 6.80798451834862  7.86349826388889 6.55174885321101  7.94307002314815 6.51053612385321  C 8.0859375 6.44244552752293  10.3446903935185 5.36553899082569  12.0229311342593 4.39435206422018  C 12.3701533564815 4.19366399082569  12.8150318287037 4.33342889908257  13.0501302083333 4.43556479357798  C 13.4353298611111 4.60220756880734  13.8096788194444 4.89965596330275  14.0285011574074 5.21143922018348  C 14.091796875 5.30282396788991  14.2889178240741 5.60564793577981  14.1442418981481 5.72391055045872  C 13.0320457175926 6.63059059633027  9.57790798611111 8.83815940366972  8.97750289351852 9.2198251146789  L 3.43460648148148 9.2198251146789  L 3.43460648148148 3.36940940366972  C 3.43460648148148 3.21351777522936  3.30620659722222 3.08629587155963  3.14887152777778 3.08629587155963  L 0.300564236111111 3.08629587155963  C 0.143229166666667 3.08629587155963  0.0148292824074074 3.21351777522936  0.0148292824074074 3.36940940366972  L 0.0148292824074074 9.6516628440367  C 0.0148292824074074 9.80755447247707  0.143229166666667 9.93477637614679  0.300564236111111 9.93477637614679  L 9.18728298611111 9.93477637614679  L 9.27589699074074 9.8774369266055  C 9.44227430555556 9.77171731651376  13.3539496527778 7.29178612385321  14.5999710648148 6.27580275229358  Z M 2.71122685185185 3.80303899082569  L 2.71122685185185 9.21803325688073  L 0.738208912037037 9.21803325688073  L 0.738208912037037 3.80303899082569  L 2.71122685185185 3.80303899082569  Z M 9.10951967592593 0.335794151376147  C 9.10951967592593 0.484518348623853  8.98835358796296 0.604572821100917  8.83825231481481 0.604572821100917  L 5.76388888888889 0.604572821100917  C 5.61378761574074 0.604572821100917  5.49262152777778 0.482726490825688  5.49262152777778 0.335794151376147  C 5.49262152777778 0.18706995412844  5.61559606481481 0.0670154816513761  5.76388888888889 0.0670154816513761  L 8.83825231481481 0.0670154816513761  C 8.98835358796296 0.0670154816513761  9.10951967592593 0.188861811926606  9.10951967592593 0.335794151376147  Z " fill-rule="nonzero" fill="#000000" stroke="none" transform="matrix(1 0 0 1 14 223 )" />
  </g>
</svg>