<?xml version="1.0" encoding="utf-8"?>
<svg version="1.1" xmlns:xlink="http://www.w3.org/1999/xlink" width="4px" height="3px" xmlns="http://www.w3.org/2000/svg">
  <g transform="matrix(1 0 0 1 -19 -222 )">
    <path d="M 2.07109375 1.61825284090909  C 2.184375 1.72301136363636  2.371875 1.72301136363636  2.48515625 1.61825284090909  L 3.748828125 0.469460227272728  C 3.862109375 0.366477272727273  3.862109375 0.196022727272729  3.748828125 0.0930397727272734  C 3.635546875 -0.00994318181818117  3.448046875 -0.00994318181818117  3.334765625 0.0930397727272734  L 2.07109375 1.24183238636364  C 1.9578125 1.34481534090909  1.9578125 1.51526988636364  2.07109375 1.61825284090909  Z M 3.998828125 2.72265625  C 3.998828125 2.86825284090909  3.866015625 2.98899147727273  3.705859375 2.98899147727273  L 0.385546875 2.98899147727273  C 0.225390625 2.98899147727273  0.092578125 2.86825284090909  0.092578125 2.72265625  C 0.092578125 2.57528409090909  0.225390625 2.45632102272727  0.385546875 2.45632102272727  L 3.705859375 2.45632102272727  C 3.866015625 2.45632102272727  3.998828125 2.57705965909091  3.998828125 2.72265625  Z " fill-rule="nonzero" fill="#000000" stroke="none" transform="matrix(1 0 0 1 19 222 )" />
  </g>
</svg>