<?xml version="1.0" encoding="utf-8"?>
<svg version="1.1" xmlns:xlink="http://www.w3.org/1999/xlink" width="16px" height="16px" xmlns="http://www.w3.org/2000/svg">
  <g transform="matrix(1 0 0 1 -14 -267 )">
    <path d="M 16 0.656319283536585  C 15.9822616425305 0.303640776536915  15.6963592234631 0.0177383574695121  15.3436807164634 0  L 0.656319283536585 0  C 0.303640776536915 0.0177383574695121  0.0177383574695121 0.303640776536915  0 0.656319283536585  L 0 15.3436807164634  C 0.0177383574695121 15.696674066311  0.303325933689024 15.9822616425305  0.656319283536585 16  L 15.3436807164634 16  C 15.6963592234631 15.9822616425305  15.9822616425305 15.6963592234631  16 15.3436807164634  L 16 0.656319283536585  Z M 14.5454545541159 6.72283812881098  L 14.5454545541159 9.27716187118902  L 8.31929047256097 9.27716187118902  L 8.31929047256097 6.72283812881098  L 14.5454545541159 6.72283812881098  Z M 14.5454545541159 10.5543237233232  L 14.5454545541159 14.5454545541159  L 1.45454544588415 14.5454545541159  L 1.45454544588415 1.45454544588415  L 14.5454545541159 1.45454544588415  L 14.5454545541159 5.44567627667683  L 7.68070952743902 5.44567627667683  C 7.32803102043935 5.44567627667683  7.04212860137195 5.73157869574423  7.04212860137195 6.0842572027439  L 7.04212860137195 9.9157427972561  C 7.04212860137195 10.2687361471037  7.32771617759146 10.5543237233232  7.68070952743902 10.5543237233232  L 14.5454545541159 10.5543237233232  Z M 9.35698447027439 8  C 9.35698447027439 8.44084814164238  9.71436250050701 8.798226171875  10.1552106421494 8.798226171875  C 10.5960587837918 8.798226171875  10.9534368140244 8.44084814164238  10.9534368140244 8  C 10.9534368140244 7.55915185835762  10.5960587837918 7.201773828125  10.1552106421494 7.201773828125  C 9.71436250050701 7.201773828125  9.35698447027439 7.55915185835762  9.35698447027439 8  Z " fill-rule="nonzero" fill="#000000" stroke="none" transform="matrix(1 0 0 1 14 267 )" />
  </g>
</svg>