<?xml version="1.0" encoding="utf-8"?>
<svg version="1.1" xmlns:xlink="http://www.w3.org/1999/xlink" width="13px" height="12px" xmlns="http://www.w3.org/2000/svg">
  <g transform="matrix(1 0 0 1 -11 -20 )">
    <path d="M 12.8578125 1.79577464788732  C 13.0609375 1.26760563380281  12.959375 0.845070422535209  12.6546875 0.528169014084507  C 12.35 0.211267605633803  11.94375 0  11.5375 0  L 3.209375 0  C 2.6 0  1.990625 0.422535211267606  1.8890625 1.05633802816901  L 0.0609375 7.8169014084507  C -0.040625 8.23943661971831  0.0609375 8.76760563380282  0.2640625 9.08450704225352  C 0.56875 9.40140845070423  0.975 9.61267605633802  1.38125 9.61267605633802  L 4.7328125 9.61267605633802  L 4.7328125 10.669014084507  L 2.0921875 10.669014084507  C 1.6859375 10.669014084507  1.4828125 10.9859154929577  1.4828125 11.3028169014084  C 1.4828125 11.6197183098592  1.7875 11.9366197183099  2.0921875 11.9366197183099  L 8.69375 11.9366197183099  C 9.1 11.9366197183099  9.303125 11.6197183098592  9.303125 11.3028169014084  C 9.303125 10.9859154929577  8.9984375 10.669014084507  8.69375 10.669014084507  L 6.053125 10.669014084507  L 6.053125 9.61267605633802  L 9.709375 9.61267605633802  C 10.31875 9.61267605633802  10.928125 9.19014084507042  11.0296875 8.55633802816901  L 12.8578125 1.79577464788732  Z M 11.6390625 1.37323943661972  L 9.8109375 8.13380281690141  C 9.8109375 8.13380281690141  9.8109375 8.23943661971831  9.8109375 8.13380281690141  L 1.38125 8.23943661971831  L 1.2796875 8.13380281690141  L 3.1078125 1.37323943661972  C 3.1078125 1.37323943661972  3.1078125 1.26760563380282  3.209375 1.26760563380282  L 11.5375 1.26760563380282  L 11.6390625 1.37323943661972  Z " fill-rule="nonzero" fill="#333333" stroke="none" transform="matrix(1 0 0 1 11 20 )" />
  </g>
</svg>