<?xml version="1.0" encoding="utf-8"?>
<svg version="1.1" xmlns:xlink="http://www.w3.org/1999/xlink" width="10px" height="9px" xmlns="http://www.w3.org/2000/svg">
  <g transform="matrix(1 0 0 1 -16 -18 )">
    <path d="M 9.94094488188976 1.70327102803738  C 10.0393700787402 1.38785046728972  10.0393700787402 0.96728971962617  9.74409448818898 0.546728971962617  C 9.44881889763779 0.231308411214953  9.05511811023622 0.0210280373831774  8.66141732283465 0.0210280373831774  L 0.590551181102362 0.0210280373831774  C 0.196850393700787 0.0210280373831774  0 0.336448598130841  0 0.651869158878505  C 0 0.967289719626168  0.295275590551181 1.28271028037383  0.590551181102362 1.28271028037383  L 8.66141732283465 1.28271028037383  L 8.75984251968504 1.38785046728972  L 6.98818897637795 8.11682242990654  C 6.88976377952756 8.43224299065421  7.08661417322834 8.85280373831776  7.38188976377953 8.95794392523365  L 7.57874015748031 8.95794392523365  C 7.8740157480315 8.95794392523365  8.07086614173228 8.74766355140187  8.16929133858267 8.43224299065421  L 9.94094488188976 1.70327102803738  Z " fill-rule="nonzero" fill="#333333" stroke="none" transform="matrix(1 0 0 1 16 18 )" />
  </g>
</svg>