<?xml version="1.0" encoding="utf-8"?>
<svg version="1.1" xmlns:xlink="http://www.w3.org/1999/xlink" width="8px" height="6px" xmlns="http://www.w3.org/2000/svg">
  <g transform="matrix(1 0 0 1 -13 -22 )">
    <path d="M 8 0.67391304347826  C 8 0.347826086956522  7.69072164948453 0.0217391304347826  7.38144329896907 0.0217391304347826  L 5.7319587628866 0.0217391304347826  C 5.31958762886598 0.0217391304347826  5.11340206185567 0.347826086956522  5.11340206185567 0.67391304347826  C 5.11340206185567 1  5.42268041237113 1.32608695652174  5.7319587628866 1.32608695652174  L 7.38144329896907 1.32608695652174  C 7.79381443298969 1.32608695652174  8 1  8 0.67391304347826  Z M 1.29896907216495 0.67391304347826  C 1.29896907216495 1  1.60824742268041 1.43478260869565  1.91752577319588 1.43478260869565  L 3.56701030927835 1.43478260869565  C 3.97938144329897 1.43478260869565  4.18556701030928 1.10869565217391  4.18556701030928 0.782608695652174  C 4.18556701030928 0.456521739130435  3.97938144329897 0.0217391304347826  3.56701030927835 0.0217391304347826  L 1.91752577319588 0.0217391304347826  C 1.50515463917526 0.0217391304347826  1.29896907216495 0.347826086956522  1.29896907216495 0.67391304347826  Z M 7.38144329896907 3.06521739130435  C 7.38144329896907 2.73913043478261  7.17525773195876 2.30434782608696  6.8659793814433 2.30434782608696  L 5.21649484536082 2.30434782608696  C 4.80412371134021 2.30434782608696  4.49484536082474 2.6304347826087  4.49484536082474 3.06521739130435  C 4.49484536082474 3.5  4.80412371134021 3.71739130434783  5.11340206185567 3.71739130434783  L 6.76288659793814 3.71739130434783  C 7.17525773195876 3.71739130434783  7.38144329896907 3.39130434782609  7.38144329896907 3.06521739130435  Z M 3.6701030927835 3.06521739130435  C 3.6701030927835 2.73913043478261  3.46391752577319 2.30434782608696  3.05154639175258 2.30434782608696  L 1.4020618556701 2.30434782608696  C 0.989690721649485 2.30434782608696  0.783505154639175 2.6304347826087  0.783505154639175 2.95652173913043  C 0.783505154639175 3.28260869565217  1.09278350515464 3.71739130434783  1.4020618556701 3.71739130434783  L 3.05154639175258 3.71739130434783  C 3.4639175257732 3.71739130434783  3.6701030927835 3.39130434782609  3.6701030927835 3.06521739130435  Z M 6.76288659793814 5.34782608695652  C 6.76288659793814 5.02173913043478  6.45360824742268 4.58695652173913  6.14432989690722 4.58695652173913  L 4.49484536082474 4.58695652173913  C 4.08247422680412 4.58695652173913  3.77319587628866 4.91304347826087  3.77319587628866 5.34782608695652  C 3.77319587628866 5.78260869565217  4.08247422680412 6  4.49484536082474 6  L 6.14432989690722 6  C 6.55670103092783 6  6.76288659793814 5.67391304347826  6.76288659793814 5.34782608695652  Z M 2.94845360824742 5.34782608695652  C 2.94845360824742 5.02173913043478  2.74226804123711 4.58695652173913  2.3298969072165 4.58695652173913  L 0.680412371134021 4.58695652173913  C 0.371134020618557 4.58695652173913  0.0618556701030928 4.91304347826087  0.0618556701030928 5.34782608695652  C 0.0618556701030928 5.78260869565217  0.371134020618556 6  0.680412371134021 6  L 2.3298969072165 6  C 2.74226804123711 6  2.94845360824742 5.67391304347826  2.94845360824742 5.34782608695652  Z " fill-rule="nonzero" fill="#333333" stroke="none" transform="matrix(1 0 0 1 13 22 )" />
  </g>
</svg>