<?xml version="1.0" encoding="utf-8"?>
<svg version="1.1" xmlns:xlink="http://www.w3.org/1999/xlink" width="16px" height="15px" xmlns="http://www.w3.org/2000/svg">
  <g transform="matrix(1 0 0 1 -10 -18 )">
    <path d="M 15.8032085561497 7.36607142857143  C 15.9828877005348 7.125  15.9572192513369 6.79464285714286  15.7433155080214 6.59821428571429  L 9.03529411764706 0.491071428571428  C 8.74438502673797 0.196428571428571  8.36791443850267 0.0357142857142853  7.9572192513369 0.0357142857142853  C 7.54652406417112 0.0357142857142853  7.17005347593583 0.196428571428571  6.87914438502674 0.499999999999999  L 0.179679144385027 6.77678571428572  C -0.0342245989304813 6.97321428571429  -0.0513368983957219 7.3125  0.136898395721925 7.53571428571429  C 0.239572192513369 7.65178571428571  0.376470588235294 7.71428571428572  0.52192513368984 7.71428571428572  C 0.641711229946524 7.71428571428572  0.770053475935829 7.66964285714286  0.864171122994652 7.58035714285714  L 1.24064171122995 7.23214285714286  L 1.24064171122995 13.3571428571429  C 1.24064171122995 14.2410714285714  1.93368983957219 14.9642857142857  2.7807486631016 15  L 13.1935828877005 15  C 14.0406417112299 14.9642857142857  14.7336898395722 14.2410714285714  14.7336898395722 13.3571428571429  L 14.7336898395722 7.10714285714286  L 15.075935828877 7.41964285714286  C 15.2898395721925 7.61607142857143  15.6149732620321 7.58928571428571  15.8032085561497 7.36607142857143  Z M 8.80427807486631 13.8035714285714  L 7.13582887700535 13.8035714285714  L 7.13582887700535 10.9821428571429  C 7.13582887700535 10.7857142857143  7.29839572192513 10.6160714285714  7.48663101604278 10.6160714285714  L 8.45347593582888 10.6160714285714  C 8.64171122994652 10.6160714285714  8.80427807486631 10.7857142857143  8.80427807486631 10.9821428571429  L 8.80427807486631 13.8035714285714  Z M 13.724064171123 6.17857142857143  C 13.7155080213904 6.24107142857143  13.7069518716578 6.29464285714286  13.7069518716578 6.35714285714286  L 13.7069518716578 13.3482142857143  C 13.7069518716578 13.6428571428571  13.475935828877 13.8839285714286  13.1935828877005 13.8839285714286  L 9.83101604278075 13.8839285714286  L 9.83101604278075 10.9821428571429  C 9.83101604278075 10.1875  9.21497326203208 9.54464285714286  8.45347593582887 9.54464285714286  L 7.48663101604278 9.54464285714286  C 6.72513368983957 9.54464285714286  6.10909090909091 10.1875  6.10909090909091 10.9821428571429  L 6.10909090909091 13.8839285714286  L 2.7807486631016 13.8839285714286  C 2.49839572192513 13.8839285714286  2.26737967914439 13.6428571428571  2.26737967914439 13.3482142857143  L 2.26737967914439 6.35714285714286  C 2.26737967914439 6.33035714285714  2.26737967914439 6.29464285714286  2.25882352941176 6.26785714285714  L 7.5807486631016 1.27678571428571  L 7.59786096256684 1.25892857142857  C 7.79465240641711 1.05357142857143  8.12834224598931 1.05357142857143  8.32513368983957 1.25892857142857  L 8.33368983957219 1.26785714285714  L 13.724064171123 6.17857142857143  Z " fill-rule="nonzero" fill="#333333" stroke="none" transform="matrix(1 0 0 1 10 18 )" />
  </g>
</svg>