<?xml version="1.0" encoding="utf-8"?>
<svg version="1.1" xmlns:xlink="http://www.w3.org/1999/xlink" width="14px" height="14px" xmlns="http://www.w3.org/2000/svg">
  <g transform="matrix(1 0 0 1 -12 -118 )">
    <path d="M 11.1689398907104 3.7232349726776  L 11.1700109289617 3.7232349726776  L 11.1700109289617 2.32652459016393  L 12.5658797814208 2.32652459016393  L 12.5658797814208 0  L 8.84256830601093 0  L 8.84256830601093 2.32652459016393  L 10.2383606557377 2.32652459016393  L 10.2383606557377 3.72331147540984  L 3.72231693989071 3.72331147540984  L 3.72231693989071 2.32652459016393  L 5.11918032786885 2.32652459016393  L 5.11918032786885 0  L 1.39586885245902 0  L 1.39586885245902 2.32652459016393  L 2.79173770491803 2.32652459016393  L 2.79173770491803 3.72331147540984  L 0 3.72331147540984  L 0 14  L 14 14  L 14 3.7232349726776  L 11.1689398907104 3.7232349726776  Z M 13.0311693989071 4.65389071038251  L 13.0311693989071 13  L 0.930579234972677 13  L 0.930579234972677 4.65389071038251  L 13.0311693989071 4.65389071038251  Z " fill-rule="nonzero" fill="#000000" stroke="none" transform="matrix(1 0 0 1 12 118 )" />
  </g>
</svg>